solid ASCII
  facet normal -7.071068e-01 0.000000e+00 7.071068e-01
    outer loop
      vertex   2.330000e+01 4.750000e+01 4.350000e+00
      vertex   2.030000e+01 4.750000e+01 1.350000e+00
      vertex   2.330000e+01 4.650000e+01 4.350000e+00
    endloop
  endfacet
  facet normal -7.071068e-01 0.000000e+00 7.071068e-01
    outer loop
      vertex   2.330000e+01 4.650000e+01 4.350000e+00
      vertex   2.030000e+01 4.750000e+01 1.350000e+00
      vertex   2.030000e+01 4.650000e+01 1.350000e+00
    endloop
  endfacet
  facet normal 0.000000e+00 0.000000e+00 1.000000e+00
    outer loop
      vertex   3.810000e+01 4.750000e+01 1.350000e+00
      vertex   1.930000e+01 5.150000e+01 1.350000e+00
      vertex   2.710000e+01 4.750000e+01 1.350000e+00
    endloop
  endfacet
  facet normal 0.000000e+00 0.000000e+00 1.000000e+00
    outer loop
      vertex   2.710000e+01 4.750000e+01 1.350000e+00
      vertex   1.930000e+01 5.150000e+01 1.350000e+00
      vertex   2.530000e+01 4.750000e+01 1.350000e+00
    endloop
  endfacet
  facet normal 0.000000e+00 0.000000e+00 1.000000e+00
    outer loop
      vertex   2.710000e+01 4.750000e+01 1.350000e+00
      vertex   2.530000e+01 4.750000e+01 1.350000e+00
      vertex   2.710000e+01 4.650000e+01 1.350000e+00
    endloop
  endfacet
  facet normal 0.000000e+00 0.000000e+00 1.000000e+00
    outer loop
      vertex   2.710000e+01 4.650000e+01 1.350000e+00
      vertex   2.530000e+01 4.750000e+01 1.350000e+00
      vertex   2.530000e+01 4.650000e+01 1.350000e+00
    endloop
  endfacet
  facet normal 0.000000e+00 0.000000e+00 1.000000e+00
    outer loop
      vertex   2.710000e+01 4.650000e+01 1.350000e+00
      vertex   2.530000e+01 4.650000e+01 1.350000e+00
      vertex   1.930000e+01 4.250000e+01 1.350000e+00
    endloop
  endfacet
  facet normal 0.000000e+00 0.000000e+00 1.000000e+00
    outer loop
      vertex   1.930000e+01 4.250000e+01 1.350000e+00
      vertex   2.530000e+01 4.650000e+01 1.350000e+00
      vertex   2.030000e+01 4.650000e+01 1.350000e+00
    endloop
  endfacet
  facet normal 0.000000e+00 0.000000e+00 1.000000e+00
    outer loop
      vertex   1.930000e+01 4.250000e+01 1.350000e+00
      vertex   2.030000e+01 4.650000e+01 1.350000e+00
      vertex   2.030000e+01 4.750000e+01 1.350000e+00
    endloop
  endfacet
  facet normal 0.000000e+00 0.000000e+00 1.000000e+00
    outer loop
      vertex   3.810000e+01 4.650000e+01 1.350000e+00
      vertex   3.990000e+01 4.650000e+01 1.350000e+00
      vertex   3.810000e+01 4.750000e+01 1.350000e+00
    endloop
  endfacet
  facet normal -0.000000e+00 0.000000e+00 1.000000e+00
    outer loop
      vertex   3.810000e+01 4.750000e+01 1.350000e+00
      vertex   3.990000e+01 4.650000e+01 1.350000e+00
      vertex   3.990000e+01 4.750000e+01 1.350000e+00
    endloop
  endfacet
  facet normal 0.000000e+00 -0.000000e+00 1.000000e+00
    outer loop
      vertex   3.810000e+01 4.750000e+01 1.350000e+00
      vertex   3.990000e+01 4.750000e+01 1.350000e+00
      vertex   1.930000e+01 5.150000e+01 1.350000e+00
    endloop
  endfacet
  facet normal 0.000000e+00 0.000000e+00 1.000000e+00
    outer loop
      vertex   1.930000e+01 5.150000e+01 1.350000e+00
      vertex   3.990000e+01 4.750000e+01 1.350000e+00
      vertex   5.090000e+01 4.750000e+01 1.350000e+00
    endloop
  endfacet
  facet normal 0.000000e+00 0.000000e+00 1.000000e+00
    outer loop
      vertex   1.930000e+01 5.150000e+01 1.350000e+00
      vertex   5.090000e+01 4.750000e+01 1.350000e+00
      vertex   7.150000e+01 5.150000e+01 1.350000e+00
    endloop
  endfacet
  facet normal 0.000000e+00 0.000000e+00 1.000000e+00
    outer loop
      vertex   7.150000e+01 5.150000e+01 1.350000e+00
      vertex   5.090000e+01 4.750000e+01 1.350000e+00
      vertex   5.270000e+01 4.750000e+01 1.350000e+00
    endloop
  endfacet
  facet normal 0.000000e+00 0.000000e+00 1.000000e+00
    outer loop
      vertex   7.150000e+01 5.150000e+01 1.350000e+00
      vertex   5.270000e+01 4.750000e+01 1.350000e+00
      vertex   6.370000e+01 4.750000e+01 1.350000e+00
    endloop
  endfacet
  facet normal 0.000000e+00 0.000000e+00 1.000000e+00
    outer loop
      vertex   3.990000e+01 4.650000e+01 1.350000e+00
      vertex   3.810000e+01 4.650000e+01 1.350000e+00
      vertex   1.930000e+01 4.250000e+01 1.350000e+00
    endloop
  endfacet
  facet normal 0.000000e+00 0.000000e+00 1.000000e+00
    outer loop
      vertex   1.930000e+01 4.250000e+01 1.350000e+00
      vertex   3.810000e+01 4.650000e+01 1.350000e+00
      vertex   2.710000e+01 4.650000e+01 1.350000e+00
    endloop
  endfacet
  facet normal 0.000000e+00 -0.000000e+00 1.000000e+00
    outer loop
      vertex   7.050000e+01 4.750000e+01 1.350000e+00
      vertex   7.150000e+01 5.150000e+01 1.350000e+00
      vertex   6.550000e+01 4.750000e+01 1.350000e+00
    endloop
  endfacet
  facet normal 0.000000e+00 -0.000000e+00 1.000000e+00
    outer loop
      vertex   6.550000e+01 4.750000e+01 1.350000e+00
      vertex   7.150000e+01 5.150000e+01 1.350000e+00
      vertex   6.370000e+01 4.750000e+01 1.350000e+00
    endloop
  endfacet
  facet normal 0.000000e+00 0.000000e+00 1.000000e+00
    outer loop
      vertex   6.550000e+01 4.750000e+01 1.350000e+00
      vertex   6.370000e+01 4.750000e+01 1.350000e+00
      vertex   6.550000e+01 4.650000e+01 1.350000e+00
    endloop
  endfacet
  facet normal 0.000000e+00 0.000000e+00 1.000000e+00
    outer loop
      vertex   6.550000e+01 4.650000e+01 1.350000e+00
      vertex   6.370000e+01 4.750000e+01 1.350000e+00
      vertex   6.370000e+01 4.650000e+01 1.350000e+00
    endloop
  endfacet
  facet normal 0.000000e+00 0.000000e+00 1.000000e+00
    outer loop
      vertex   6.550000e+01 4.650000e+01 1.350000e+00
      vertex   6.370000e+01 4.650000e+01 1.350000e+00
      vertex   7.150000e+01 4.250000e+01 1.350000e+00
    endloop
  endfacet
  facet normal 0.000000e+00 0.000000e+00 1.000000e+00
    outer loop
      vertex   7.150000e+01 4.250000e+01 1.350000e+00
      vertex   6.370000e+01 4.650000e+01 1.350000e+00
      vertex   5.270000e+01 4.650000e+01 1.350000e+00
    endloop
  endfacet
  facet normal 0.000000e+00 0.000000e+00 1.000000e+00
    outer loop
      vertex   7.150000e+01 4.250000e+01 1.350000e+00
      vertex   5.270000e+01 4.650000e+01 1.350000e+00
      vertex   5.090000e+01 4.650000e+01 1.350000e+00
    endloop
  endfacet
  facet normal 0.000000e+00 0.000000e+00 1.000000e+00
    outer loop
      vertex   5.090000e+01 4.650000e+01 1.350000e+00
      vertex   5.270000e+01 4.650000e+01 1.350000e+00
      vertex   5.090000e+01 4.750000e+01 1.350000e+00
    endloop
  endfacet
  facet normal -0.000000e+00 0.000000e+00 1.000000e+00
    outer loop
      vertex   5.090000e+01 4.750000e+01 1.350000e+00
      vertex   5.270000e+01 4.650000e+01 1.350000e+00
      vertex   5.270000e+01 4.750000e+01 1.350000e+00
    endloop
  endfacet
  facet normal 0.000000e+00 0.000000e+00 1.000000e+00
    outer loop
      vertex   7.150000e+01 5.150000e+01 1.350000e+00
      vertex   7.050000e+01 4.750000e+01 1.350000e+00
      vertex   7.150000e+01 4.250000e+01 1.350000e+00
    endloop
  endfacet
  facet normal 0.000000e+00 0.000000e+00 1.000000e+00
    outer loop
      vertex   7.150000e+01 4.250000e+01 1.350000e+00
      vertex   7.050000e+01 4.750000e+01 1.350000e+00
      vertex   7.050000e+01 4.650000e+01 1.350000e+00
    endloop
  endfacet
  facet normal 0.000000e+00 0.000000e+00 1.000000e+00
    outer loop
      vertex   7.150000e+01 4.250000e+01 1.350000e+00
      vertex   7.050000e+01 4.650000e+01 1.350000e+00
      vertex   6.550000e+01 4.650000e+01 1.350000e+00
    endloop
  endfacet
  facet normal 0.000000e+00 0.000000e+00 1.000000e+00
    outer loop
      vertex   1.930000e+01 4.250000e+01 1.350000e+00
      vertex   7.150000e+01 4.250000e+01 1.350000e+00
      vertex   3.990000e+01 4.650000e+01 1.350000e+00
    endloop
  endfacet
  facet normal -0.000000e+00 0.000000e+00 1.000000e+00
    outer loop
      vertex   3.990000e+01 4.650000e+01 1.350000e+00
      vertex   7.150000e+01 4.250000e+01 1.350000e+00
      vertex   5.090000e+01 4.650000e+01 1.350000e+00
    endloop
  endfacet
  facet normal 0.000000e+00 0.000000e+00 1.000000e+00
    outer loop
      vertex   2.530000e+01 4.750000e+01 1.350000e+00
      vertex   1.930000e+01 5.150000e+01 1.350000e+00
      vertex   2.030000e+01 4.750000e+01 1.350000e+00
    endloop
  endfacet
  facet normal 0.000000e+00 0.000000e+00 1.000000e+00
    outer loop
      vertex   2.030000e+01 4.750000e+01 1.350000e+00
      vertex   1.930000e+01 5.150000e+01 1.350000e+00
      vertex   1.930000e+01 4.250000e+01 1.350000e+00
    endloop
  endfacet
  facet normal 7.071068e-01 3.014578e-14 7.071068e-01
    outer loop
      vertex   6.750000e+01 4.650000e+01 4.350000e+00
      vertex   7.050000e+01 4.650000e+01 1.350000e+00
      vertex   6.750000e+01 4.750000e+01 4.350000e+00
    endloop
  endfacet
  facet normal 7.071068e-01 2.009718e-14 7.071068e-01
    outer loop
      vertex   6.750000e+01 4.750000e+01 4.350000e+00
      vertex   7.050000e+01 4.650000e+01 1.350000e+00
      vertex   7.050000e+01 4.750000e+01 1.350000e+00
    endloop
  endfacet
  facet normal 1.000000e+00 4.440892e-15 -0.000000e+00
    outer loop
      vertex   5.017231e+00 6.500000e+01 2.350000e+00
      vertex   5.017231e+00 6.900000e+01 2.350000e+00
      vertex   5.017231e+00 6.500000e+01 1.000000e+01
    endloop
  endfacet
  facet normal 1.000000e+00 3.996803e-15 -2.322035e-16
    outer loop
      vertex   5.017231e+00 6.500000e+01 1.000000e+01
      vertex   5.017231e+00 6.900000e+01 2.350000e+00
      vertex   5.017231e+00 6.900000e+01 1.000000e+01
    endloop
  endfacet
  facet normal 1.000000e+00 0.000000e+00 0.000000e+00
    outer loop
      vertex   0.000000e+00 0.000000e+00 0.000000e+00
      vertex   0.000000e+00 6.500000e+01 0.000000e+00
      vertex   0.000000e+00 0.000000e+00 1.000000e+01
    endloop
  endfacet
  facet normal 1.000000e+00 -0.000000e+00 0.000000e+00
    outer loop
      vertex   0.000000e+00 0.000000e+00 1.000000e+01
      vertex   0.000000e+00 6.500000e+01 0.000000e+00
      vertex   0.000000e+00 6.500000e+01 1.000000e+01
    endloop
  endfacet
  facet normal -1.357397e-16 1.000000e+00 0.000000e+00
    outer loop
      vertex   6.170000e+01 0.000000e+00 0.000000e+00
      vertex   5.470000e+01 -9.501777e-16 0.000000e+00
      vertex   6.170000e+01 0.000000e+00 4.350000e+00
    endloop
  endfacet
  facet normal 0.000000e+00 1.000000e+00 -2.184317e-16
    outer loop
      vertex   6.170000e+01 0.000000e+00 4.350000e+00
      vertex   5.470000e+01 -9.501777e-16 0.000000e+00
      vertex   5.470000e+01 0.000000e+00 4.350000e+00
    endloop
  endfacet
  facet normal 0.000000e+00 1.000000e+00 -0.000000e+00
    outer loop
      vertex   6.170000e+01 0.000000e+00 4.350000e+00
      vertex   5.470000e+01 0.000000e+00 4.350000e+00
      vertex   7.750000e+01 0.000000e+00 1.000000e+01
    endloop
  endfacet
  facet normal 0.000000e+00 1.000000e+00 0.000000e+00
    outer loop
      vertex   7.750000e+01 0.000000e+00 1.000000e+01
      vertex   5.470000e+01 0.000000e+00 4.350000e+00
      vertex   5.270000e+01 0.000000e+00 4.350000e+00
    endloop
  endfacet
  facet normal 0.000000e+00 1.000000e+00 0.000000e+00
    outer loop
      vertex   7.750000e+01 0.000000e+00 1.000000e+01
      vertex   5.270000e+01 0.000000e+00 4.350000e+00
      vertex   5.090000e+01 0.000000e+00 4.350000e+00
    endloop
  endfacet
  facet normal -0.000000e+00 1.000000e+00 0.000000e+00
    outer loop
      vertex   5.090000e+01 0.000000e+00 4.350000e+00
      vertex   5.270000e+01 0.000000e+00 4.350000e+00
      vertex   5.090000e+01 0.000000e+00 4.000000e+00
    endloop
  endfacet
  facet normal 0.000000e+00 1.000000e+00 0.000000e+00
    outer loop
      vertex   5.090000e+01 0.000000e+00 4.000000e+00
      vertex   5.270000e+01 0.000000e+00 4.350000e+00
      vertex   5.270000e+01 0.000000e+00 4.000000e+00
    endloop
  endfacet
  facet normal 0.000000e+00 1.000000e+00 -0.000000e+00
    outer loop
      vertex   5.090000e+01 0.000000e+00 4.350000e+00
      vertex   4.890000e+01 0.000000e+00 4.350000e+00
      vertex   7.750000e+01 0.000000e+00 1.000000e+01
    endloop
  endfacet
  facet normal 0.000000e+00 1.000000e+00 0.000000e+00
    outer loop
      vertex   7.750000e+01 0.000000e+00 1.000000e+01
      vertex   4.890000e+01 0.000000e+00 4.350000e+00
      vertex   4.190000e+01 0.000000e+00 4.350000e+00
    endloop
  endfacet
  facet normal 0.000000e+00 1.000000e+00 0.000000e+00
    outer loop
      vertex   7.750000e+01 0.000000e+00 1.000000e+01
      vertex   4.190000e+01 0.000000e+00 4.350000e+00
      vertex   3.990000e+01 0.000000e+00 4.350000e+00
    endloop
  endfacet
  facet normal 0.000000e+00 1.000000e+00 -0.000000e+00
    outer loop
      vertex   4.890000e+01 0.000000e+00 0.000000e+00
      vertex   4.190000e+01 0.000000e+00 0.000000e+00
      vertex   4.890000e+01 0.000000e+00 4.350000e+00
    endloop
  endfacet
  facet normal 0.000000e+00 1.000000e+00 0.000000e+00
    outer loop
      vertex   4.890000e+01 0.000000e+00 4.350000e+00
      vertex   4.190000e+01 0.000000e+00 0.000000e+00
      vertex   4.190000e+01 0.000000e+00 4.350000e+00
    endloop
  endfacet
  facet normal 0.000000e+00 1.000000e+00 -0.000000e+00
    outer loop
      vertex   3.990000e+01 0.000000e+00 4.000000e+00
      vertex   3.810000e+01 0.000000e+00 4.000000e+00
      vertex   3.990000e+01 0.000000e+00 4.350000e+00
    endloop
  endfacet
  facet normal 0.000000e+00 1.000000e+00 0.000000e+00
    outer loop
      vertex   3.990000e+01 0.000000e+00 4.350000e+00
      vertex   3.810000e+01 0.000000e+00 4.000000e+00
      vertex   3.810000e+01 0.000000e+00 4.350000e+00
    endloop
  endfacet
  facet normal 0.000000e+00 1.000000e+00 -0.000000e+00
    outer loop
      vertex   3.990000e+01 0.000000e+00 4.350000e+00
      vertex   3.810000e+01 0.000000e+00 4.350000e+00
      vertex   7.750000e+01 0.000000e+00 1.000000e+01
    endloop
  endfacet
  facet normal 0.000000e+00 1.000000e+00 0.000000e+00
    outer loop
      vertex   7.750000e+01 0.000000e+00 1.000000e+01
      vertex   3.810000e+01 0.000000e+00 4.350000e+00
      vertex   0.000000e+00 0.000000e+00 1.000000e+01
    endloop
  endfacet
  facet normal 0.000000e+00 1.000000e+00 0.000000e+00
    outer loop
      vertex   0.000000e+00 0.000000e+00 1.000000e+01
      vertex   3.810000e+01 0.000000e+00 4.350000e+00
      vertex   3.610000e+01 0.000000e+00 4.350000e+00
    endloop
  endfacet
  facet normal 0.000000e+00 1.000000e+00 0.000000e+00
    outer loop
      vertex   0.000000e+00 0.000000e+00 1.000000e+01
      vertex   3.610000e+01 0.000000e+00 4.350000e+00
      vertex   2.910000e+01 0.000000e+00 4.350000e+00
    endloop
  endfacet
  facet normal -0.000000e+00 1.000000e+00 0.000000e+00
    outer loop
      vertex   2.910000e+01 0.000000e+00 4.350000e+00
      vertex   3.610000e+01 0.000000e+00 4.350000e+00
      vertex   2.910000e+01 0.000000e+00 0.000000e+00
    endloop
  endfacet
  facet normal 0.000000e+00 1.000000e+00 0.000000e+00
    outer loop
      vertex   2.910000e+01 0.000000e+00 0.000000e+00
      vertex   3.610000e+01 0.000000e+00 4.350000e+00
      vertex   3.610000e+01 0.000000e+00 0.000000e+00
    endloop
  endfacet
  facet normal 0.000000e+00 1.000000e+00 0.000000e+00
    outer loop
      vertex   2.910000e+01 0.000000e+00 4.350000e+00
      vertex   2.710000e+01 0.000000e+00 4.350000e+00
      vertex   0.000000e+00 0.000000e+00 1.000000e+01
    endloop
  endfacet
  facet normal 0.000000e+00 1.000000e+00 0.000000e+00
    outer loop
      vertex   0.000000e+00 0.000000e+00 1.000000e+01
      vertex   2.710000e+01 0.000000e+00 4.350000e+00
      vertex   2.530000e+01 0.000000e+00 4.350000e+00
    endloop
  endfacet
  facet normal 0.000000e+00 1.000000e+00 0.000000e+00
    outer loop
      vertex   0.000000e+00 0.000000e+00 1.000000e+01
      vertex   2.530000e+01 0.000000e+00 4.350000e+00
      vertex   2.330000e+01 0.000000e+00 4.350000e+00
    endloop
  endfacet
  facet normal 0.000000e+00 1.000000e+00 -0.000000e+00
    outer loop
      vertex   2.710000e+01 0.000000e+00 4.000000e+00
      vertex   2.530000e+01 0.000000e+00 4.000000e+00
      vertex   2.710000e+01 0.000000e+00 4.350000e+00
    endloop
  endfacet
  facet normal 0.000000e+00 1.000000e+00 0.000000e+00
    outer loop
      vertex   2.710000e+01 0.000000e+00 4.350000e+00
      vertex   2.530000e+01 0.000000e+00 4.000000e+00
      vertex   2.530000e+01 0.000000e+00 4.350000e+00
    endloop
  endfacet
  facet normal 0.000000e+00 1.000000e+00 -0.000000e+00
    outer loop
      vertex   2.330000e+01 0.000000e+00 0.000000e+00
      vertex   0.000000e+00 0.000000e+00 0.000000e+00
      vertex   2.330000e+01 0.000000e+00 4.350000e+00
    endloop
  endfacet
  facet normal 0.000000e+00 1.000000e+00 0.000000e+00
    outer loop
      vertex   2.330000e+01 0.000000e+00 4.350000e+00
      vertex   0.000000e+00 0.000000e+00 0.000000e+00
      vertex   0.000000e+00 0.000000e+00 1.000000e+01
    endloop
  endfacet
  facet normal 0.000000e+00 1.000000e+00 -0.000000e+00
    outer loop
      vertex   7.750000e+01 0.000000e+00 0.000000e+00
      vertex   6.750000e+01 0.000000e+00 4.350000e+00
      vertex   7.750000e+01 0.000000e+00 1.000000e+01
    endloop
  endfacet
  facet normal 0.000000e+00 1.000000e+00 0.000000e+00
    outer loop
      vertex   7.750000e+01 0.000000e+00 1.000000e+01
      vertex   6.750000e+01 0.000000e+00 4.350000e+00
      vertex   6.550000e+01 0.000000e+00 4.350000e+00
    endloop
  endfacet
  facet normal 0.000000e+00 1.000000e+00 0.000000e+00
    outer loop
      vertex   7.750000e+01 0.000000e+00 1.000000e+01
      vertex   6.550000e+01 0.000000e+00 4.350000e+00
      vertex   6.370000e+01 0.000000e+00 4.350000e+00
    endloop
  endfacet
  facet normal -0.000000e+00 1.000000e+00 0.000000e+00
    outer loop
      vertex   6.370000e+01 0.000000e+00 4.350000e+00
      vertex   6.550000e+01 0.000000e+00 4.350000e+00
      vertex   6.370000e+01 0.000000e+00 4.000000e+00
    endloop
  endfacet
  facet normal 0.000000e+00 1.000000e+00 0.000000e+00
    outer loop
      vertex   6.370000e+01 0.000000e+00 4.000000e+00
      vertex   6.550000e+01 0.000000e+00 4.350000e+00
      vertex   6.550000e+01 0.000000e+00 4.000000e+00
    endloop
  endfacet
  facet normal 0.000000e+00 1.000000e+00 0.000000e+00
    outer loop
      vertex   7.750000e+01 0.000000e+00 0.000000e+00
      vertex   6.750000e+01 0.000000e+00 0.000000e+00
      vertex   6.750000e+01 0.000000e+00 4.350000e+00
    endloop
  endfacet
  facet normal 0.000000e+00 1.000000e+00 -0.000000e+00
    outer loop
      vertex   6.370000e+01 0.000000e+00 4.350000e+00
      vertex   6.170000e+01 0.000000e+00 4.350000e+00
      vertex   7.750000e+01 0.000000e+00 1.000000e+01
    endloop
  endfacet
  facet normal -1.000000e+00 0.000000e+00 0.000000e+00
    outer loop
      vertex   7.750000e+01 6.500000e+01 0.000000e+00
      vertex   7.750000e+01 0.000000e+00 0.000000e+00
      vertex   7.750000e+01 6.500000e+01 1.000000e+01
    endloop
  endfacet
  facet normal -1.000000e+00 -0.000000e+00 0.000000e+00
    outer loop
      vertex   7.750000e+01 6.500000e+01 1.000000e+01
      vertex   7.750000e+01 0.000000e+00 0.000000e+00
      vertex   7.750000e+01 0.000000e+00 1.000000e+01
    endloop
  endfacet
  facet normal -1.000000e+00 0.000000e+00 0.000000e+00
    outer loop
      vertex   7.398345e+01 6.900000e+01 2.350000e+00
      vertex   7.398345e+01 6.500000e+01 2.350000e+00
      vertex   7.398345e+01 6.900000e+01 1.000000e+01
    endloop
  endfacet
  facet normal -1.000000e+00 -0.000000e+00 0.000000e+00
    outer loop
      vertex   7.398345e+01 6.900000e+01 1.000000e+01
      vertex   7.398345e+01 6.500000e+01 2.350000e+00
      vertex   7.398345e+01 6.500000e+01 1.000000e+01
    endloop
  endfacet
  facet normal 0.000000e+00 0.000000e+00 1.000000e+00
    outer loop
      vertex   5.017231e+00 6.500000e+01 1.000000e+01
      vertex   5.017231e+00 6.900000e+01 1.000000e+01
      vertex   0.000000e+00 6.500000e+01 1.000000e+01
    endloop
  endfacet
  facet normal 0.000000e+00 -0.000000e+00 1.000000e+00
    outer loop
      vertex   0.000000e+00 6.500000e+01 1.000000e+01
      vertex   5.017231e+00 6.900000e+01 1.000000e+01
      vertex   -4.000000e+00 6.900000e+01 1.000000e+01
    endloop
  endfacet
  facet normal 0.000000e+00 0.000000e+00 1.000000e+00
    outer loop
      vertex   0.000000e+00 6.500000e+01 1.000000e+01
      vertex   -4.000000e+00 6.900000e+01 1.000000e+01
      vertex   -4.000000e+00 -4.000000e+00 1.000000e+01
    endloop
  endfacet
  facet normal 0.000000e+00 0.000000e+00 1.000000e+00
    outer loop
      vertex   0.000000e+00 6.500000e+01 1.000000e+01
      vertex   -4.000000e+00 -4.000000e+00 1.000000e+01
      vertex   0.000000e+00 0.000000e+00 1.000000e+01
    endloop
  endfacet
  facet normal 0.000000e+00 0.000000e+00 1.000000e+00
    outer loop
      vertex   0.000000e+00 0.000000e+00 1.000000e+01
      vertex   -4.000000e+00 -4.000000e+00 1.000000e+01
      vertex   8.150000e+01 -4.000000e+00 1.000000e+01
    endloop
  endfacet
  facet normal -0.000000e+00 0.000000e+00 1.000000e+00
    outer loop
      vertex   0.000000e+00 0.000000e+00 1.000000e+01
      vertex   8.150000e+01 -4.000000e+00 1.000000e+01
      vertex   7.750000e+01 0.000000e+00 1.000000e+01
    endloop
  endfacet
  facet normal -0.000000e+00 0.000000e+00 1.000000e+00
    outer loop
      vertex   7.750000e+01 0.000000e+00 1.000000e+01
      vertex   8.150000e+01 -4.000000e+00 1.000000e+01
      vertex   7.750000e+01 6.500000e+01 1.000000e+01
    endloop
  endfacet
  facet normal -0.000000e+00 0.000000e+00 1.000000e+00
    outer loop
      vertex   7.750000e+01 6.500000e+01 1.000000e+01
      vertex   8.150000e+01 -4.000000e+00 1.000000e+01
      vertex   8.150000e+01 6.900000e+01 1.000000e+01
    endloop
  endfacet
  facet normal 0.000000e+00 -0.000000e+00 1.000000e+00
    outer loop
      vertex   7.750000e+01 6.500000e+01 1.000000e+01
      vertex   8.150000e+01 6.900000e+01 1.000000e+01
      vertex   7.398345e+01 6.900000e+01 1.000000e+01
    endloop
  endfacet
  facet normal 0.000000e+00 0.000000e+00 1.000000e+00
    outer loop
      vertex   7.398345e+01 6.900000e+01 1.000000e+01
      vertex   7.398345e+01 6.500000e+01 1.000000e+01
      vertex   7.750000e+01 6.500000e+01 1.000000e+01
    endloop
  endfacet
  facet normal 1.000000e+00 4.440892e-14 -0.000000e+00
    outer loop
      vertex   1.250000e+01 3.700000e+01 0.000000e+00
      vertex   1.250000e+01 4.400000e+01 0.000000e+00
      vertex   1.250000e+01 3.700000e+01 3.350000e+00
    endloop
  endfacet
  facet normal 1.000000e+00 4.440892e-14 0.000000e+00
    outer loop
      vertex   1.250000e+01 3.700000e+01 3.350000e+00
      vertex   1.250000e+01 4.400000e+01 0.000000e+00
      vertex   1.250000e+01 4.400000e+01 3.350000e+00
    endloop
  endfacet
  facet normal 0.000000e+00 1.000000e+00 -0.000000e+00
    outer loop
      vertex   1.430000e+01 3.700000e+01 0.000000e+00
      vertex   1.250000e+01 3.700000e+01 0.000000e+00
      vertex   1.430000e+01 3.700000e+01 3.350000e+00
    endloop
  endfacet
  facet normal 0.000000e+00 1.000000e+00 0.000000e+00
    outer loop
      vertex   1.430000e+01 3.700000e+01 3.350000e+00
      vertex   1.250000e+01 3.700000e+01 0.000000e+00
      vertex   1.250000e+01 3.700000e+01 3.350000e+00
    endloop
  endfacet
  facet normal -1.000000e+00 -2.537653e-16 0.000000e+00
    outer loop
      vertex   1.430000e+01 4.400000e+01 0.000000e+00
      vertex   1.430000e+01 3.700000e+01 0.000000e+00
      vertex   1.430000e+01 4.400000e+01 3.350000e+00
    endloop
  endfacet
  facet normal -1.000000e+00 -2.537653e-16 0.000000e+00
    outer loop
      vertex   1.430000e+01 4.400000e+01 3.350000e+00
      vertex   1.430000e+01 3.700000e+01 0.000000e+00
      vertex   1.430000e+01 3.700000e+01 3.350000e+00
    endloop
  endfacet
  facet normal 0.000000e+00 1.000000e+00 -0.000000e+00
    outer loop
      vertex   1.580000e+01 4.400000e+01 0.000000e+00
      vertex   1.430000e+01 4.400000e+01 0.000000e+00
      vertex   1.580000e+01 4.400000e+01 3.350000e+00
    endloop
  endfacet
  facet normal 0.000000e+00 1.000000e+00 0.000000e+00
    outer loop
      vertex   1.580000e+01 4.400000e+01 3.350000e+00
      vertex   1.430000e+01 4.400000e+01 0.000000e+00
      vertex   1.430000e+01 4.400000e+01 3.350000e+00
    endloop
  endfacet
  facet normal 1.000000e+00 0.000000e+00 0.000000e+00
    outer loop
      vertex   1.580000e+01 3.550000e+01 0.000000e+00
      vertex   1.580000e+01 4.400000e+01 0.000000e+00
      vertex   1.580000e+01 3.550000e+01 3.350000e+00
    endloop
  endfacet
  facet normal 1.000000e+00 -0.000000e+00 0.000000e+00
    outer loop
      vertex   1.580000e+01 3.550000e+01 3.350000e+00
      vertex   1.580000e+01 4.400000e+01 0.000000e+00
      vertex   1.580000e+01 4.400000e+01 3.350000e+00
    endloop
  endfacet
  facet normal 1.480297e-15 -1.000000e+00 0.000000e+00
    outer loop
      vertex   1.100000e+01 3.550000e+01 0.000000e+00
      vertex   1.580000e+01 3.550000e+01 0.000000e+00
      vertex   1.100000e+01 3.550000e+01 3.350000e+00
    endloop
  endfacet
  facet normal 1.480297e-15 -1.000000e+00 0.000000e+00
    outer loop
      vertex   1.100000e+01 3.550000e+01 3.350000e+00
      vertex   1.580000e+01 3.550000e+01 0.000000e+00
      vertex   1.580000e+01 3.550000e+01 3.350000e+00
    endloop
  endfacet
  facet normal -1.000000e+00 -3.782595e-14 0.000000e+00
    outer loop
      vertex   1.100000e+01 4.400000e+01 0.000000e+00
      vertex   1.100000e+01 3.550000e+01 0.000000e+00
      vertex   1.100000e+01 4.400000e+01 3.350000e+00
    endloop
  endfacet
  facet normal -1.000000e+00 -3.782595e-14 0.000000e+00
    outer loop
      vertex   1.100000e+01 4.400000e+01 3.350000e+00
      vertex   1.100000e+01 3.550000e+01 0.000000e+00
      vertex   1.100000e+01 3.550000e+01 3.350000e+00
    endloop
  endfacet
  facet normal 8.526513e-14 1.000000e+00 -0.000000e+00
    outer loop
      vertex   1.250000e+01 4.400000e+01 0.000000e+00
      vertex   1.100000e+01 4.400000e+01 0.000000e+00
      vertex   1.250000e+01 4.400000e+01 3.350000e+00
    endloop
  endfacet
  facet normal 8.526513e-14 1.000000e+00 0.000000e+00
    outer loop
      vertex   1.250000e+01 4.400000e+01 3.350000e+00
      vertex   1.100000e+01 4.400000e+01 0.000000e+00
      vertex   1.100000e+01 4.400000e+01 3.350000e+00
    endloop
  endfacet
  facet normal 0.000000e+00 0.000000e+00 1.000000e+00
    outer loop
      vertex   1.250000e+01 4.400000e+01 3.350000e+00
      vertex   1.100000e+01 4.400000e+01 3.350000e+00
      vertex   1.250000e+01 3.700000e+01 3.350000e+00
    endloop
  endfacet
  facet normal 0.000000e+00 0.000000e+00 1.000000e+00
    outer loop
      vertex   1.250000e+01 3.700000e+01 3.350000e+00
      vertex   1.100000e+01 4.400000e+01 3.350000e+00
      vertex   1.100000e+01 3.550000e+01 3.350000e+00
    endloop
  endfacet
  facet normal 0.000000e+00 0.000000e+00 1.000000e+00
    outer loop
      vertex   1.250000e+01 3.700000e+01 3.350000e+00
      vertex   1.100000e+01 3.550000e+01 3.350000e+00
      vertex   1.580000e+01 3.550000e+01 3.350000e+00
    endloop
  endfacet
  facet normal -0.000000e+00 0.000000e+00 1.000000e+00
    outer loop
      vertex   1.250000e+01 3.700000e+01 3.350000e+00
      vertex   1.580000e+01 3.550000e+01 3.350000e+00
      vertex   1.430000e+01 3.700000e+01 3.350000e+00
    endloop
  endfacet
  facet normal -0.000000e+00 0.000000e+00 1.000000e+00
    outer loop
      vertex   1.430000e+01 3.700000e+01 3.350000e+00
      vertex   1.580000e+01 3.550000e+01 3.350000e+00
      vertex   1.580000e+01 4.400000e+01 3.350000e+00
    endloop
  endfacet
  facet normal 0.000000e+00 -0.000000e+00 1.000000e+00
    outer loop
      vertex   1.430000e+01 3.700000e+01 3.350000e+00
      vertex   1.580000e+01 4.400000e+01 3.350000e+00
      vertex   1.430000e+01 4.400000e+01 3.350000e+00
    endloop
  endfacet
  facet normal 0.000000e+00 -1.000000e+00 0.000000e+00
    outer loop
      vertex   2.330000e+01 6.500000e+01 0.000000e+00
      vertex   2.330000e+01 6.500000e+01 1.350000e+00
      vertex   1.430000e+01 6.500000e+01 0.000000e+00
    endloop
  endfacet
  facet normal 0.000000e+00 -1.000000e+00 0.000000e+00
    outer loop
      vertex   1.430000e+01 6.500000e+01 0.000000e+00
      vertex   2.330000e+01 6.500000e+01 1.350000e+00
      vertex   1.430000e+01 6.500000e+01 2.350000e+00
    endloop
  endfacet
  facet normal 0.000000e+00 -1.000000e+00 0.000000e+00
    outer loop
      vertex   1.430000e+01 6.500000e+01 2.350000e+00
      vertex   2.330000e+01 6.500000e+01 1.350000e+00
      vertex   7.398345e+01 6.500000e+01 2.350000e+00
    endloop
  endfacet
  facet normal 0.000000e+00 -1.000000e+00 0.000000e+00
    outer loop
      vertex   7.398345e+01 6.500000e+01 2.350000e+00
      vertex   2.330000e+01 6.500000e+01 1.350000e+00
      vertex   6.750000e+01 6.500000e+01 1.350000e+00
    endloop
  endfacet
  facet normal 0.000000e+00 -1.000000e+00 -0.000000e+00
    outer loop
      vertex   7.398345e+01 6.500000e+01 2.350000e+00
      vertex   6.750000e+01 6.500000e+01 1.350000e+00
      vertex   7.750000e+01 6.500000e+01 0.000000e+00
    endloop
  endfacet
  facet normal 0.000000e+00 -1.000000e+00 0.000000e+00
    outer loop
      vertex   7.750000e+01 6.500000e+01 0.000000e+00
      vertex   6.750000e+01 6.500000e+01 1.350000e+00
      vertex   6.750000e+01 6.500000e+01 0.000000e+00
    endloop
  endfacet
  facet normal 0.000000e+00 -1.000000e+00 0.000000e+00
    outer loop
      vertex   7.750000e+01 6.500000e+01 0.000000e+00
      vertex   7.750000e+01 6.500000e+01 1.000000e+01
      vertex   7.398345e+01 6.500000e+01 2.350000e+00
    endloop
  endfacet
  facet normal 0.000000e+00 -1.000000e+00 0.000000e+00
    outer loop
      vertex   7.398345e+01 6.500000e+01 2.350000e+00
      vertex   7.750000e+01 6.500000e+01 1.000000e+01
      vertex   7.398345e+01 6.500000e+01 1.000000e+01
    endloop
  endfacet
  facet normal 0.000000e+00 -1.000000e+00 0.000000e+00
    outer loop
      vertex   0.000000e+00 6.500000e+01 1.000000e+01
      vertex   0.000000e+00 6.500000e+01 0.000000e+00
      vertex   5.017231e+00 6.500000e+01 2.350000e+00
    endloop
  endfacet
  facet normal 0.000000e+00 -1.000000e+00 -0.000000e+00
    outer loop
      vertex   5.017231e+00 6.500000e+01 2.350000e+00
      vertex   0.000000e+00 6.500000e+01 0.000000e+00
      vertex   1.250000e+01 6.500000e+01 0.000000e+00
    endloop
  endfacet
  facet normal 0.000000e+00 -1.000000e+00 0.000000e+00
    outer loop
      vertex   5.017231e+00 6.500000e+01 2.350000e+00
      vertex   1.250000e+01 6.500000e+01 0.000000e+00
      vertex   1.250000e+01 6.500000e+01 2.350000e+00
    endloop
  endfacet
  facet normal 0.000000e+00 -1.000000e+00 0.000000e+00
    outer loop
      vertex   5.017231e+00 6.500000e+01 2.350000e+00
      vertex   5.017231e+00 6.500000e+01 1.000000e+01
      vertex   0.000000e+00 6.500000e+01 1.000000e+01
    endloop
  endfacet
  facet normal -1.000000e+00 0.000000e+00 0.000000e+00
    outer loop
      vertex   1.430000e+01 6.700000e+01 0.000000e+00
      vertex   1.430000e+01 6.500000e+01 0.000000e+00
      vertex   1.430000e+01 6.700000e+01 2.350000e+00
    endloop
  endfacet
  facet normal -1.000000e+00 -0.000000e+00 0.000000e+00
    outer loop
      vertex   1.430000e+01 6.700000e+01 2.350000e+00
      vertex   1.430000e+01 6.500000e+01 0.000000e+00
      vertex   1.430000e+01 6.500000e+01 2.350000e+00
    endloop
  endfacet
  facet normal 0.000000e+00 -1.000000e+00 0.000000e+00
    outer loop
      vertex   1.250000e+01 6.700000e+01 0.000000e+00
      vertex   1.430000e+01 6.700000e+01 0.000000e+00
      vertex   1.250000e+01 6.700000e+01 2.350000e+00
    endloop
  endfacet
  facet normal 0.000000e+00 -1.000000e+00 0.000000e+00
    outer loop
      vertex   1.250000e+01 6.700000e+01 2.350000e+00
      vertex   1.430000e+01 6.700000e+01 0.000000e+00
      vertex   1.430000e+01 6.700000e+01 2.350000e+00
    endloop
  endfacet
  facet normal 1.000000e+00 0.000000e+00 0.000000e+00
    outer loop
      vertex   1.250000e+01 6.500000e+01 0.000000e+00
      vertex   1.250000e+01 6.700000e+01 0.000000e+00
      vertex   1.250000e+01 6.500000e+01 2.350000e+00
    endloop
  endfacet
  facet normal 1.000000e+00 -0.000000e+00 0.000000e+00
    outer loop
      vertex   1.250000e+01 6.500000e+01 2.350000e+00
      vertex   1.250000e+01 6.700000e+01 0.000000e+00
      vertex   1.250000e+01 6.700000e+01 2.350000e+00
    endloop
  endfacet
  facet normal 0.000000e+00 -0.000000e+00 1.000000e+00
    outer loop
      vertex   1.250000e+01 6.500000e+01 2.350000e+00
      vertex   1.250000e+01 6.700000e+01 2.350000e+00
      vertex   5.017231e+00 6.500000e+01 2.350000e+00
    endloop
  endfacet
  facet normal 0.000000e+00 -0.000000e+00 1.000000e+00
    outer loop
      vertex   5.017231e+00 6.500000e+01 2.350000e+00
      vertex   1.250000e+01 6.700000e+01 2.350000e+00
      vertex   5.017231e+00 6.900000e+01 2.350000e+00
    endloop
  endfacet
  facet normal 0.000000e+00 0.000000e+00 1.000000e+00
    outer loop
      vertex   5.017231e+00 6.900000e+01 2.350000e+00
      vertex   1.250000e+01 6.700000e+01 2.350000e+00
      vertex   1.430000e+01 6.700000e+01 2.350000e+00
    endloop
  endfacet
  facet normal -0.000000e+00 0.000000e+00 1.000000e+00
    outer loop
      vertex   5.017231e+00 6.900000e+01 2.350000e+00
      vertex   1.430000e+01 6.700000e+01 2.350000e+00
      vertex   7.398345e+01 6.900000e+01 2.350000e+00
    endloop
  endfacet
  facet normal 0.000000e+00 0.000000e+00 1.000000e+00
    outer loop
      vertex   7.398345e+01 6.900000e+01 2.350000e+00
      vertex   1.430000e+01 6.700000e+01 2.350000e+00
      vertex   7.398345e+01 6.500000e+01 2.350000e+00
    endloop
  endfacet
  facet normal 0.000000e+00 0.000000e+00 1.000000e+00
    outer loop
      vertex   7.398345e+01 6.500000e+01 2.350000e+00
      vertex   1.430000e+01 6.700000e+01 2.350000e+00
      vertex   1.430000e+01 6.500000e+01 2.350000e+00
    endloop
  endfacet
  facet normal -1.000000e+00 0.000000e+00 0.000000e+00
    outer loop
      vertex   1.930000e+01 5.150000e+01 0.000000e+00
      vertex   1.930000e+01 4.250000e+01 0.000000e+00
      vertex   1.930000e+01 5.150000e+01 1.350000e+00
    endloop
  endfacet
  facet normal -1.000000e+00 -0.000000e+00 0.000000e+00
    outer loop
      vertex   1.930000e+01 5.150000e+01 1.350000e+00
      vertex   1.930000e+01 4.250000e+01 0.000000e+00
      vertex   1.930000e+01 4.250000e+01 1.350000e+00
    endloop
  endfacet
  facet normal 4.628056e-15 1.000000e+00 -0.000000e+00
    outer loop
      vertex   7.150000e+01 5.150000e+01 0.000000e+00
      vertex   1.930000e+01 5.150000e+01 0.000000e+00
      vertex   7.150000e+01 5.150000e+01 1.350000e+00
    endloop
  endfacet
  facet normal 4.628056e-15 1.000000e+00 0.000000e+00
    outer loop
      vertex   7.150000e+01 5.150000e+01 1.350000e+00
      vertex   1.930000e+01 5.150000e+01 0.000000e+00
      vertex   1.930000e+01 5.150000e+01 1.350000e+00
    endloop
  endfacet
  facet normal 1.000000e+00 0.000000e+00 0.000000e+00
    outer loop
      vertex   7.150000e+01 4.250000e+01 0.000000e+00
      vertex   7.150000e+01 5.150000e+01 0.000000e+00
      vertex   7.150000e+01 4.250000e+01 1.350000e+00
    endloop
  endfacet
  facet normal 1.000000e+00 -0.000000e+00 0.000000e+00
    outer loop
      vertex   7.150000e+01 4.250000e+01 1.350000e+00
      vertex   7.150000e+01 5.150000e+01 0.000000e+00
      vertex   7.150000e+01 5.150000e+01 1.350000e+00
    endloop
  endfacet
  facet normal 0.000000e+00 -1.000000e+00 0.000000e+00
    outer loop
      vertex   1.930000e+01 4.250000e+01 0.000000e+00
      vertex   7.150000e+01 4.250000e+01 0.000000e+00
      vertex   1.930000e+01 4.250000e+01 1.350000e+00
    endloop
  endfacet
  facet normal 0.000000e+00 -1.000000e+00 0.000000e+00
    outer loop
      vertex   1.930000e+01 4.250000e+01 1.350000e+00
      vertex   7.150000e+01 4.250000e+01 0.000000e+00
      vertex   7.150000e+01 4.250000e+01 1.350000e+00
    endloop
  endfacet
  facet normal 0.000000e+00 1.000000e+00 0.000000e+00
    outer loop
      vertex   2.030000e+01 4.750000e+01 1.350000e+00
      vertex   2.330000e+01 4.750000e+01 4.350000e+00
      vertex   2.530000e+01 4.750000e+01 1.350000e+00
    endloop
  endfacet
  facet normal 0.000000e+00 1.000000e+00 -0.000000e+00
    outer loop
      vertex   2.530000e+01 4.750000e+01 1.350000e+00
      vertex   2.330000e+01 4.750000e+01 4.350000e+00
      vertex   2.530000e+01 4.750000e+01 4.350000e+00
    endloop
  endfacet
  facet normal 0.000000e+00 -1.000000e+00 0.000000e+00
    outer loop
      vertex   3.990000e+01 4.650000e+01 1.350000e+00
      vertex   5.090000e+01 4.650000e+01 1.350000e+00
      vertex   3.990000e+01 4.650000e+01 4.350000e+00
    endloop
  endfacet
  facet normal 0.000000e+00 -1.000000e+00 0.000000e+00
    outer loop
      vertex   3.990000e+01 4.650000e+01 4.350000e+00
      vertex   5.090000e+01 4.650000e+01 1.350000e+00
      vertex   5.090000e+01 4.650000e+01 4.350000e+00
    endloop
  endfacet
  facet normal 1.000000e+00 0.000000e+00 0.000000e+00
    outer loop
      vertex   5.090000e+01 4.650000e+01 1.350000e+00
      vertex   5.090000e+01 4.750000e+01 1.350000e+00
      vertex   5.090000e+01 4.650000e+01 4.350000e+00
    endloop
  endfacet
  facet normal 1.000000e+00 -0.000000e+00 0.000000e+00
    outer loop
      vertex   5.090000e+01 4.650000e+01 4.350000e+00
      vertex   5.090000e+01 4.750000e+01 1.350000e+00
      vertex   5.090000e+01 4.750000e+01 4.350000e+00
    endloop
  endfacet
  facet normal 0.000000e+00 -1.000000e+00 0.000000e+00
    outer loop
      vertex   5.270000e+01 4.650000e+01 1.350000e+00
      vertex   6.370000e+01 4.650000e+01 1.350000e+00
      vertex   5.270000e+01 4.650000e+01 4.350000e+00
    endloop
  endfacet
  facet normal 0.000000e+00 -1.000000e+00 0.000000e+00
    outer loop
      vertex   5.270000e+01 4.650000e+01 4.350000e+00
      vertex   6.370000e+01 4.650000e+01 1.350000e+00
      vertex   6.370000e+01 4.650000e+01 4.350000e+00
    endloop
  endfacet
  facet normal 1.000000e+00 0.000000e+00 0.000000e+00
    outer loop
      vertex   6.370000e+01 4.650000e+01 1.350000e+00
      vertex   6.370000e+01 4.750000e+01 1.350000e+00
      vertex   6.370000e+01 4.650000e+01 4.350000e+00
    endloop
  endfacet
  facet normal 1.000000e+00 -0.000000e+00 0.000000e+00
    outer loop
      vertex   6.370000e+01 4.650000e+01 4.350000e+00
      vertex   6.370000e+01 4.750000e+01 1.350000e+00
      vertex   6.370000e+01 4.750000e+01 4.350000e+00
    endloop
  endfacet
  facet normal -4.305889e-13 1.000000e+00 4.736952e-16
    outer loop
      vertex   7.050000e+01 4.750000e+01 1.350000e+00
      vertex   6.550000e+01 4.750000e+01 1.350000e+00
      vertex   6.750000e+01 4.750000e+01 4.350000e+00
    endloop
  endfacet
  facet normal -4.298784e-13 1.000000e+00 0.000000e+00
    outer loop
      vertex   6.750000e+01 4.750000e+01 4.350000e+00
      vertex   6.550000e+01 4.750000e+01 1.350000e+00
      vertex   6.550000e+01 4.750000e+01 4.350000e+00
    endloop
  endfacet
  facet normal -1.000000e+00 -1.421085e-14 0.000000e+00
    outer loop
      vertex   6.550000e+01 4.750000e+01 1.350000e+00
      vertex   6.550000e+01 4.650000e+01 1.350000e+00
      vertex   6.550000e+01 4.750000e+01 4.350000e+00
    endloop
  endfacet
  facet normal -1.000000e+00 -1.421085e-14 0.000000e+00
    outer loop
      vertex   6.550000e+01 4.750000e+01 4.350000e+00
      vertex   6.550000e+01 4.650000e+01 1.350000e+00
      vertex   6.550000e+01 4.650000e+01 4.350000e+00
    endloop
  endfacet
  facet normal 0.000000e+00 -1.000000e+00 0.000000e+00
    outer loop
      vertex   2.710000e+01 4.650000e+01 1.350000e+00
      vertex   3.810000e+01 4.650000e+01 1.350000e+00
      vertex   2.710000e+01 4.650000e+01 4.350000e+00
    endloop
  endfacet
  facet normal 0.000000e+00 -1.000000e+00 0.000000e+00
    outer loop
      vertex   2.710000e+01 4.650000e+01 4.350000e+00
      vertex   3.810000e+01 4.650000e+01 1.350000e+00
      vertex   3.810000e+01 4.650000e+01 4.350000e+00
    endloop
  endfacet
  facet normal 1.000000e+00 0.000000e+00 0.000000e+00
    outer loop
      vertex   3.810000e+01 4.650000e+01 1.350000e+00
      vertex   3.810000e+01 4.750000e+01 1.350000e+00
      vertex   3.810000e+01 4.650000e+01 4.350000e+00
    endloop
  endfacet
  facet normal 1.000000e+00 -0.000000e+00 0.000000e+00
    outer loop
      vertex   3.810000e+01 4.650000e+01 4.350000e+00
      vertex   3.810000e+01 4.750000e+01 1.350000e+00
      vertex   3.810000e+01 4.750000e+01 4.350000e+00
    endloop
  endfacet
  facet normal 1.000000e+00 0.000000e+00 0.000000e+00
    outer loop
      vertex   2.530000e+01 4.650000e+01 1.350000e+00
      vertex   2.530000e+01 4.750000e+01 1.350000e+00
      vertex   2.530000e+01 4.650000e+01 4.350000e+00
    endloop
  endfacet
  facet normal 1.000000e+00 -0.000000e+00 0.000000e+00
    outer loop
      vertex   2.530000e+01 4.650000e+01 4.350000e+00
      vertex   2.530000e+01 4.750000e+01 1.350000e+00
      vertex   2.530000e+01 4.750000e+01 4.350000e+00
    endloop
  endfacet
  facet normal 0.000000e+00 -1.000000e+00 0.000000e+00
    outer loop
      vertex   2.030000e+01 4.650000e+01 1.350000e+00
      vertex   2.530000e+01 4.650000e+01 1.350000e+00
      vertex   2.330000e+01 4.650000e+01 4.350000e+00
    endloop
  endfacet
  facet normal 0.000000e+00 -1.000000e+00 0.000000e+00
    outer loop
      vertex   2.330000e+01 4.650000e+01 4.350000e+00
      vertex   2.530000e+01 4.650000e+01 1.350000e+00
      vertex   2.530000e+01 4.650000e+01 4.350000e+00
    endloop
  endfacet
  facet normal 0.000000e+00 0.000000e+00 1.000000e+00
    outer loop
      vertex   2.330000e+01 4.650000e+01 4.350000e+00
      vertex   2.530000e+01 4.650000e+01 4.350000e+00
      vertex   2.330000e+01 4.750000e+01 4.350000e+00
    endloop
  endfacet
  facet normal -0.000000e+00 0.000000e+00 1.000000e+00
    outer loop
      vertex   2.330000e+01 4.750000e+01 4.350000e+00
      vertex   2.530000e+01 4.650000e+01 4.350000e+00
      vertex   2.530000e+01 4.750000e+01 4.350000e+00
    endloop
  endfacet
  facet normal -1.000000e+00 0.000000e+00 0.000000e+00
    outer loop
      vertex   3.990000e+01 4.750000e+01 1.350000e+00
      vertex   3.990000e+01 4.650000e+01 1.350000e+00
      vertex   3.990000e+01 4.750000e+01 4.350000e+00
    endloop
  endfacet
  facet normal -1.000000e+00 -0.000000e+00 0.000000e+00
    outer loop
      vertex   3.990000e+01 4.750000e+01 4.350000e+00
      vertex   3.990000e+01 4.650000e+01 1.350000e+00
      vertex   3.990000e+01 4.650000e+01 4.350000e+00
    endloop
  endfacet
  facet normal 0.000000e+00 1.000000e+00 -0.000000e+00
    outer loop
      vertex   5.090000e+01 4.750000e+01 1.350000e+00
      vertex   3.990000e+01 4.750000e+01 1.350000e+00
      vertex   5.090000e+01 4.750000e+01 4.350000e+00
    endloop
  endfacet
  facet normal 0.000000e+00 1.000000e+00 0.000000e+00
    outer loop
      vertex   5.090000e+01 4.750000e+01 4.350000e+00
      vertex   3.990000e+01 4.750000e+01 1.350000e+00
      vertex   3.990000e+01 4.750000e+01 4.350000e+00
    endloop
  endfacet
  facet normal 0.000000e+00 0.000000e+00 1.000000e+00
    outer loop
      vertex   3.990000e+01 4.650000e+01 4.350000e+00
      vertex   5.090000e+01 4.650000e+01 4.350000e+00
      vertex   3.990000e+01 4.750000e+01 4.350000e+00
    endloop
  endfacet
  facet normal -0.000000e+00 0.000000e+00 1.000000e+00
    outer loop
      vertex   3.990000e+01 4.750000e+01 4.350000e+00
      vertex   5.090000e+01 4.650000e+01 4.350000e+00
      vertex   5.090000e+01 4.750000e+01 4.350000e+00
    endloop
  endfacet
  facet normal 1.000000e+00 5.684342e-16 -0.000000e+00
    outer loop
      vertex   6.750000e+01 0.000000e+00 0.000000e+00
      vertex   6.750000e+01 2.500000e+01 0.000000e+00
      vertex   6.750000e+01 0.000000e+00 4.350000e+00
    endloop
  endfacet
  facet normal 1.000000e+00 5.684342e-16 0.000000e+00
    outer loop
      vertex   6.750000e+01 0.000000e+00 4.350000e+00
      vertex   6.750000e+01 2.500000e+01 0.000000e+00
      vertex   6.750000e+01 2.500000e+01 4.350000e+00
    endloop
  endfacet
  facet normal -1.000000e+00 -2.030122e-15 0.000000e+00
    outer loop
      vertex   6.550000e+01 0.000000e+00 4.000000e+00
      vertex   6.550000e+01 0.000000e+00 4.350000e+00
      vertex   6.550000e+01 7.000000e+00 4.000000e+00
    endloop
  endfacet
  facet normal -1.000000e+00 -1.136868e-15 1.786507e-14
    outer loop
      vertex   6.550000e+01 7.000000e+00 4.000000e+00
      vertex   6.550000e+01 0.000000e+00 4.350000e+00
      vertex   6.550000e+01 2.500000e+01 4.350000e+00
    endloop
  endfacet
  facet normal -1.000000e+00 -7.894919e-16 0.000000e+00
    outer loop
      vertex   6.550000e+01 7.000000e+00 4.000000e+00
      vertex   6.550000e+01 2.500000e+01 4.350000e+00
      vertex   6.550000e+01 2.500000e+01 1.350000e+00
    endloop
  endfacet
  facet normal -1.000000e+00 -7.894919e-16 0.000000e+00
    outer loop
      vertex   6.550000e+01 2.500000e+01 1.350000e+00
      vertex   6.550000e+01 7.000000e+00 1.350000e+00
      vertex   6.550000e+01 7.000000e+00 4.000000e+00
    endloop
  endfacet
  facet normal 0.000000e+00 -0.000000e+00 1.000000e+00
    outer loop
      vertex   6.550000e+01 0.000000e+00 4.350000e+00
      vertex   6.750000e+01 0.000000e+00 4.350000e+00
      vertex   6.550000e+01 2.500000e+01 4.350000e+00
    endloop
  endfacet
  facet normal 0.000000e+00 0.000000e+00 1.000000e+00
    outer loop
      vertex   6.550000e+01 2.500000e+01 4.350000e+00
      vertex   6.750000e+01 0.000000e+00 4.350000e+00
      vertex   6.750000e+01 2.500000e+01 4.350000e+00
    endloop
  endfacet
  facet normal 1.000000e+00 2.842171e-16 -0.000000e+00
    outer loop
      vertex   4.190000e+01 0.000000e+00 0.000000e+00
      vertex   4.190000e+01 2.500000e+01 0.000000e+00
      vertex   4.190000e+01 0.000000e+00 4.350000e+00
    endloop
  endfacet
  facet normal 1.000000e+00 2.842171e-16 0.000000e+00
    outer loop
      vertex   4.190000e+01 0.000000e+00 4.350000e+00
      vertex   4.190000e+01 2.500000e+01 0.000000e+00
      vertex   4.190000e+01 2.500000e+01 4.350000e+00
    endloop
  endfacet
  facet normal -1.000000e+00 0.000000e+00 0.000000e+00
    outer loop
      vertex   3.990000e+01 0.000000e+00 4.000000e+00
      vertex   3.990000e+01 0.000000e+00 4.350000e+00
      vertex   3.990000e+01 7.000000e+00 4.000000e+00
    endloop
  endfacet
  facet normal -1.000000e+00 2.842171e-16 5.684342e-15
    outer loop
      vertex   3.990000e+01 7.000000e+00 4.000000e+00
      vertex   3.990000e+01 0.000000e+00 4.350000e+00
      vertex   3.990000e+01 2.500000e+01 4.350000e+00
    endloop
  endfacet
  facet normal -1.000000e+00 3.947460e-16 0.000000e+00
    outer loop
      vertex   3.990000e+01 7.000000e+00 4.000000e+00
      vertex   3.990000e+01 2.500000e+01 4.350000e+00
      vertex   3.990000e+01 2.500000e+01 1.350000e+00
    endloop
  endfacet
  facet normal -1.000000e+00 3.947460e-16 5.292149e-31
    outer loop
      vertex   3.990000e+01 2.500000e+01 1.350000e+00
      vertex   3.990000e+01 7.000000e+00 1.350000e+00
      vertex   3.990000e+01 7.000000e+00 4.000000e+00
    endloop
  endfacet
  facet normal 0.000000e+00 0.000000e+00 1.000000e+00
    outer loop
      vertex   3.990000e+01 0.000000e+00 4.350000e+00
      vertex   4.190000e+01 0.000000e+00 4.350000e+00
      vertex   3.990000e+01 2.500000e+01 4.350000e+00
    endloop
  endfacet
  facet normal 0.000000e+00 0.000000e+00 1.000000e+00
    outer loop
      vertex   3.990000e+01 2.500000e+01 4.350000e+00
      vertex   4.190000e+01 0.000000e+00 4.350000e+00
      vertex   4.190000e+01 2.500000e+01 4.350000e+00
    endloop
  endfacet
  facet normal 1.000000e+00 0.000000e+00 0.000000e+00
    outer loop
      vertex   2.530000e+01 7.000000e+00 1.350000e+00
      vertex   2.530000e+01 2.500000e+01 1.350000e+00
      vertex   2.530000e+01 7.000000e+00 4.000000e+00
    endloop
  endfacet
  facet normal 1.000000e+00 -0.000000e+00 0.000000e+00
    outer loop
      vertex   2.530000e+01 7.000000e+00 4.000000e+00
      vertex   2.530000e+01 2.500000e+01 1.350000e+00
      vertex   2.530000e+01 2.500000e+01 4.350000e+00
    endloop
  endfacet
  facet normal 1.000000e+00 0.000000e+00 -0.000000e+00
    outer loop
      vertex   2.530000e+01 7.000000e+00 4.000000e+00
      vertex   2.530000e+01 2.500000e+01 4.350000e+00
      vertex   2.530000e+01 0.000000e+00 4.350000e+00
    endloop
  endfacet
  facet normal 1.000000e+00 0.000000e+00 0.000000e+00
    outer loop
      vertex   2.530000e+01 0.000000e+00 4.350000e+00
      vertex   2.530000e+01 0.000000e+00 4.000000e+00
      vertex   2.530000e+01 7.000000e+00 4.000000e+00
    endloop
  endfacet
  facet normal -1.000000e+00 -4.263256e-16 0.000000e+00
    outer loop
      vertex   2.330000e+01 2.500000e+01 0.000000e+00
      vertex   2.330000e+01 0.000000e+00 0.000000e+00
      vertex   2.330000e+01 2.500000e+01 4.350000e+00
    endloop
  endfacet
  facet normal -1.000000e+00 -4.263256e-16 0.000000e+00
    outer loop
      vertex   2.330000e+01 2.500000e+01 4.350000e+00
      vertex   2.330000e+01 0.000000e+00 0.000000e+00
      vertex   2.330000e+01 0.000000e+00 4.350000e+00
    endloop
  endfacet
  facet normal 0.000000e+00 -0.000000e+00 1.000000e+00
    outer loop
      vertex   2.330000e+01 0.000000e+00 4.350000e+00
      vertex   2.530000e+01 0.000000e+00 4.350000e+00
      vertex   2.330000e+01 2.500000e+01 4.350000e+00
    endloop
  endfacet
  facet normal -0.000000e+00 0.000000e+00 1.000000e+00
    outer loop
      vertex   2.330000e+01 2.500000e+01 4.350000e+00
      vertex   2.530000e+01 0.000000e+00 4.350000e+00
      vertex   2.530000e+01 2.500000e+01 4.350000e+00
    endloop
  endfacet
  facet normal 1.000000e+00 0.000000e+00 -0.000000e+00
    outer loop
      vertex   5.090000e+01 7.000000e+00 1.350000e+00
      vertex   5.090000e+01 2.500000e+01 1.350000e+00
      vertex   5.090000e+01 7.000000e+00 4.000000e+00
    endloop
  endfacet
  facet normal 1.000000e+00 -0.000000e+00 0.000000e+00
    outer loop
      vertex   5.090000e+01 7.000000e+00 4.000000e+00
      vertex   5.090000e+01 2.500000e+01 1.350000e+00
      vertex   5.090000e+01 2.500000e+01 4.350000e+00
    endloop
  endfacet
  facet normal 1.000000e+00 0.000000e+00 -0.000000e+00
    outer loop
      vertex   5.090000e+01 7.000000e+00 4.000000e+00
      vertex   5.090000e+01 2.500000e+01 4.350000e+00
      vertex   5.090000e+01 0.000000e+00 4.350000e+00
    endloop
  endfacet
  facet normal 1.000000e+00 0.000000e+00 0.000000e+00
    outer loop
      vertex   5.090000e+01 0.000000e+00 4.350000e+00
      vertex   5.090000e+01 0.000000e+00 4.000000e+00
      vertex   5.090000e+01 7.000000e+00 4.000000e+00
    endloop
  endfacet
  facet normal -1.000000e+00 5.684342e-16 0.000000e+00
    outer loop
      vertex   4.890000e+01 2.500000e+01 0.000000e+00
      vertex   4.890000e+01 0.000000e+00 0.000000e+00
      vertex   4.890000e+01 2.500000e+01 4.350000e+00
    endloop
  endfacet
  facet normal -1.000000e+00 5.684342e-16 0.000000e+00
    outer loop
      vertex   4.890000e+01 2.500000e+01 4.350000e+00
      vertex   4.890000e+01 0.000000e+00 0.000000e+00
      vertex   4.890000e+01 0.000000e+00 4.350000e+00
    endloop
  endfacet
  facet normal 0.000000e+00 0.000000e+00 1.000000e+00
    outer loop
      vertex   4.890000e+01 0.000000e+00 4.350000e+00
      vertex   5.090000e+01 0.000000e+00 4.350000e+00
      vertex   4.890000e+01 2.500000e+01 4.350000e+00
    endloop
  endfacet
  facet normal -0.000000e+00 0.000000e+00 1.000000e+00
    outer loop
      vertex   4.890000e+01 2.500000e+01 4.350000e+00
      vertex   5.090000e+01 0.000000e+00 4.350000e+00
      vertex   5.090000e+01 2.500000e+01 4.350000e+00
    endloop
  endfacet
  facet normal -1.000000e+00 0.000000e+00 0.000000e+00
    outer loop
      vertex   5.270000e+01 4.750000e+01 1.350000e+00
      vertex   5.270000e+01 4.650000e+01 1.350000e+00
      vertex   5.270000e+01 4.750000e+01 4.350000e+00
    endloop
  endfacet
  facet normal -1.000000e+00 -0.000000e+00 0.000000e+00
    outer loop
      vertex   5.270000e+01 4.750000e+01 4.350000e+00
      vertex   5.270000e+01 4.650000e+01 1.350000e+00
      vertex   5.270000e+01 4.650000e+01 4.350000e+00
    endloop
  endfacet
  facet normal 0.000000e+00 1.000000e+00 -0.000000e+00
    outer loop
      vertex   6.370000e+01 4.750000e+01 1.350000e+00
      vertex   5.270000e+01 4.750000e+01 1.350000e+00
      vertex   6.370000e+01 4.750000e+01 4.350000e+00
    endloop
  endfacet
  facet normal 0.000000e+00 1.000000e+00 0.000000e+00
    outer loop
      vertex   6.370000e+01 4.750000e+01 4.350000e+00
      vertex   5.270000e+01 4.750000e+01 1.350000e+00
      vertex   5.270000e+01 4.750000e+01 4.350000e+00
    endloop
  endfacet
  facet normal 0.000000e+00 0.000000e+00 1.000000e+00
    outer loop
      vertex   6.370000e+01 4.750000e+01 4.350000e+00
      vertex   5.270000e+01 4.750000e+01 4.350000e+00
      vertex   6.370000e+01 4.650000e+01 4.350000e+00
    endloop
  endfacet
  facet normal 0.000000e+00 0.000000e+00 1.000000e+00
    outer loop
      vertex   6.370000e+01 4.650000e+01 4.350000e+00
      vertex   5.270000e+01 4.750000e+01 4.350000e+00
      vertex   5.270000e+01 4.650000e+01 4.350000e+00
    endloop
  endfacet
  facet normal 1.000000e+00 3.947460e-16 -0.000000e+00
    outer loop
      vertex   6.370000e+01 7.000000e+00 1.350000e+00
      vertex   6.370000e+01 2.500000e+01 1.350000e+00
      vertex   6.370000e+01 7.000000e+00 4.000000e+00
    endloop
  endfacet
  facet normal 1.000000e+00 3.947460e-16 0.000000e+00
    outer loop
      vertex   6.370000e+01 7.000000e+00 4.000000e+00
      vertex   6.370000e+01 2.500000e+01 1.350000e+00
      vertex   6.370000e+01 2.500000e+01 4.350000e+00
    endloop
  endfacet
  facet normal 1.000000e+00 5.684342e-16 -8.932537e-15
    outer loop
      vertex   6.370000e+01 7.000000e+00 4.000000e+00
      vertex   6.370000e+01 2.500000e+01 4.350000e+00
      vertex   6.370000e+01 0.000000e+00 4.350000e+00
    endloop
  endfacet
  facet normal 1.000000e+00 1.015061e-15 0.000000e+00
    outer loop
      vertex   6.370000e+01 0.000000e+00 4.350000e+00
      vertex   6.370000e+01 0.000000e+00 4.000000e+00
      vertex   6.370000e+01 7.000000e+00 4.000000e+00
    endloop
  endfacet
  facet normal -1.000000e+00 -5.684342e-16 0.000000e+00
    outer loop
      vertex   6.170000e+01 2.500000e+01 0.000000e+00
      vertex   6.170000e+01 0.000000e+00 0.000000e+00
      vertex   6.170000e+01 2.500000e+01 4.350000e+00
    endloop
  endfacet
  facet normal -1.000000e+00 -5.684342e-16 0.000000e+00
    outer loop
      vertex   6.170000e+01 2.500000e+01 4.350000e+00
      vertex   6.170000e+01 0.000000e+00 0.000000e+00
      vertex   6.170000e+01 0.000000e+00 4.350000e+00
    endloop
  endfacet
  facet normal 0.000000e+00 -0.000000e+00 1.000000e+00
    outer loop
      vertex   6.170000e+01 0.000000e+00 4.350000e+00
      vertex   6.370000e+01 0.000000e+00 4.350000e+00
      vertex   6.170000e+01 2.500000e+01 4.350000e+00
    endloop
  endfacet
  facet normal -0.000000e+00 0.000000e+00 1.000000e+00
    outer loop
      vertex   6.170000e+01 2.500000e+01 4.350000e+00
      vertex   6.370000e+01 0.000000e+00 4.350000e+00
      vertex   6.370000e+01 2.500000e+01 4.350000e+00
    endloop
  endfacet
  facet normal 1.000000e+00 0.000000e+00 -0.000000e+00
    outer loop
      vertex   3.810000e+01 7.000000e+00 1.350000e+00
      vertex   3.810000e+01 2.500000e+01 1.350000e+00
      vertex   3.810000e+01 7.000000e+00 4.000000e+00
    endloop
  endfacet
  facet normal 1.000000e+00 -0.000000e+00 0.000000e+00
    outer loop
      vertex   3.810000e+01 7.000000e+00 4.000000e+00
      vertex   3.810000e+01 2.500000e+01 1.350000e+00
      vertex   3.810000e+01 2.500000e+01 4.350000e+00
    endloop
  endfacet
  facet normal 1.000000e+00 2.842171e-16 -1.461688e-14
    outer loop
      vertex   3.810000e+01 7.000000e+00 4.000000e+00
      vertex   3.810000e+01 2.500000e+01 4.350000e+00
      vertex   3.810000e+01 0.000000e+00 4.350000e+00
    endloop
  endfacet
  facet normal 1.000000e+00 1.015061e-15 0.000000e+00
    outer loop
      vertex   3.810000e+01 0.000000e+00 4.350000e+00
      vertex   3.810000e+01 0.000000e+00 4.000000e+00
      vertex   3.810000e+01 7.000000e+00 4.000000e+00
    endloop
  endfacet
  facet normal -1.000000e+00 0.000000e+00 0.000000e+00
    outer loop
      vertex   3.610000e+01 2.500000e+01 0.000000e+00
      vertex   3.610000e+01 0.000000e+00 0.000000e+00
      vertex   3.610000e+01 2.500000e+01 4.350000e+00
    endloop
  endfacet
  facet normal -1.000000e+00 -0.000000e+00 0.000000e+00
    outer loop
      vertex   3.610000e+01 2.500000e+01 4.350000e+00
      vertex   3.610000e+01 0.000000e+00 0.000000e+00
      vertex   3.610000e+01 0.000000e+00 4.350000e+00
    endloop
  endfacet
  facet normal 0.000000e+00 0.000000e+00 1.000000e+00
    outer loop
      vertex   3.610000e+01 0.000000e+00 4.350000e+00
      vertex   3.810000e+01 0.000000e+00 4.350000e+00
      vertex   3.610000e+01 2.500000e+01 4.350000e+00
    endloop
  endfacet
  facet normal -0.000000e+00 0.000000e+00 1.000000e+00
    outer loop
      vertex   3.610000e+01 2.500000e+01 4.350000e+00
      vertex   3.810000e+01 0.000000e+00 4.350000e+00
      vertex   3.810000e+01 2.500000e+01 4.350000e+00
    endloop
  endfacet
  facet normal 1.000000e+00 -1.421085e-16 0.000000e+00
    outer loop
      vertex   2.910000e+01 0.000000e+00 0.000000e+00
      vertex   2.910000e+01 2.500000e+01 0.000000e+00
      vertex   2.910000e+01 0.000000e+00 4.350000e+00
    endloop
  endfacet
  facet normal 1.000000e+00 -1.421085e-16 0.000000e+00
    outer loop
      vertex   2.910000e+01 0.000000e+00 4.350000e+00
      vertex   2.910000e+01 2.500000e+01 0.000000e+00
      vertex   2.910000e+01 2.500000e+01 4.350000e+00
    endloop
  endfacet
  facet normal -1.000000e+00 -5.075305e-16 0.000000e+00
    outer loop
      vertex   2.710000e+01 0.000000e+00 4.000000e+00
      vertex   2.710000e+01 0.000000e+00 4.350000e+00
      vertex   2.710000e+01 7.000000e+00 4.000000e+00
    endloop
  endfacet
  facet normal -1.000000e+00 -2.842171e-16 4.466269e-15
    outer loop
      vertex   2.710000e+01 7.000000e+00 4.000000e+00
      vertex   2.710000e+01 0.000000e+00 4.350000e+00
      vertex   2.710000e+01 2.500000e+01 4.350000e+00
    endloop
  endfacet
  facet normal -1.000000e+00 -1.973730e-16 0.000000e+00
    outer loop
      vertex   2.710000e+01 7.000000e+00 4.000000e+00
      vertex   2.710000e+01 2.500000e+01 4.350000e+00
      vertex   2.710000e+01 2.500000e+01 1.350000e+00
    endloop
  endfacet
  facet normal -1.000000e+00 -1.973730e-16 0.000000e+00
    outer loop
      vertex   2.710000e+01 2.500000e+01 1.350000e+00
      vertex   2.710000e+01 7.000000e+00 1.350000e+00
      vertex   2.710000e+01 7.000000e+00 4.000000e+00
    endloop
  endfacet
  facet normal 0.000000e+00 -0.000000e+00 1.000000e+00
    outer loop
      vertex   2.710000e+01 0.000000e+00 4.350000e+00
      vertex   2.910000e+01 0.000000e+00 4.350000e+00
      vertex   2.710000e+01 2.500000e+01 4.350000e+00
    endloop
  endfacet
  facet normal 0.000000e+00 0.000000e+00 1.000000e+00
    outer loop
      vertex   2.710000e+01 2.500000e+01 4.350000e+00
      vertex   2.910000e+01 0.000000e+00 4.350000e+00
      vertex   2.910000e+01 2.500000e+01 4.350000e+00
    endloop
  endfacet
  facet normal 1.000000e+00 0.000000e+00 0.000000e+00
    outer loop
      vertex   5.470000e+01 -9.501777e-16 0.000000e+00
      vertex   5.470000e+01 2.500000e+01 0.000000e+00
      vertex   5.470000e+01 0.000000e+00 4.350000e+00
    endloop
  endfacet
  facet normal 1.000000e+00 -0.000000e+00 0.000000e+00
    outer loop
      vertex   5.470000e+01 0.000000e+00 4.350000e+00
      vertex   5.470000e+01 2.500000e+01 0.000000e+00
      vertex   5.470000e+01 2.500000e+01 4.350000e+00
    endloop
  endfacet
  facet normal -1.000000e+00 0.000000e+00 0.000000e+00
    outer loop
      vertex   5.270000e+01 0.000000e+00 4.000000e+00
      vertex   5.270000e+01 0.000000e+00 4.350000e+00
      vertex   5.270000e+01 7.000000e+00 4.000000e+00
    endloop
  endfacet
  facet normal -1.000000e+00 5.684342e-16 1.136868e-14
    outer loop
      vertex   5.270000e+01 7.000000e+00 4.000000e+00
      vertex   5.270000e+01 0.000000e+00 4.350000e+00
      vertex   5.270000e+01 2.500000e+01 4.350000e+00
    endloop
  endfacet
  facet normal -1.000000e+00 7.894919e-16 0.000000e+00
    outer loop
      vertex   5.270000e+01 7.000000e+00 4.000000e+00
      vertex   5.270000e+01 2.500000e+01 4.350000e+00
      vertex   5.270000e+01 2.500000e+01 1.350000e+00
    endloop
  endfacet
  facet normal -1.000000e+00 7.894919e-16 0.000000e+00
    outer loop
      vertex   5.270000e+01 2.500000e+01 1.350000e+00
      vertex   5.270000e+01 7.000000e+00 1.350000e+00
      vertex   5.270000e+01 7.000000e+00 4.000000e+00
    endloop
  endfacet
  facet normal 0.000000e+00 0.000000e+00 1.000000e+00
    outer loop
      vertex   5.270000e+01 0.000000e+00 4.350000e+00
      vertex   5.470000e+01 0.000000e+00 4.350000e+00
      vertex   5.270000e+01 2.500000e+01 4.350000e+00
    endloop
  endfacet
  facet normal 0.000000e+00 0.000000e+00 1.000000e+00
    outer loop
      vertex   5.270000e+01 2.500000e+01 4.350000e+00
      vertex   5.470000e+01 0.000000e+00 4.350000e+00
      vertex   5.470000e+01 2.500000e+01 4.350000e+00
    endloop
  endfacet
  facet normal 0.000000e+00 -1.000000e+00 0.000000e+00
    outer loop
      vertex   7.050000e+01 4.650000e+01 1.350000e+00
      vertex   6.750000e+01 4.650000e+01 4.350000e+00
      vertex   6.550000e+01 4.650000e+01 1.350000e+00
    endloop
  endfacet
  facet normal 0.000000e+00 -1.000000e+00 0.000000e+00
    outer loop
      vertex   6.550000e+01 4.650000e+01 1.350000e+00
      vertex   6.750000e+01 4.650000e+01 4.350000e+00
      vertex   6.550000e+01 4.650000e+01 4.350000e+00
    endloop
  endfacet
  facet normal 0.000000e+00 -0.000000e+00 1.000000e+00
    outer loop
      vertex   6.550000e+01 4.650000e+01 4.350000e+00
      vertex   6.750000e+01 4.650000e+01 4.350000e+00
      vertex   6.550000e+01 4.750000e+01 4.350000e+00
    endloop
  endfacet
  facet normal -0.000000e+00 0.000000e+00 1.000000e+00
    outer loop
      vertex   6.550000e+01 4.750000e+01 4.350000e+00
      vertex   6.750000e+01 4.650000e+01 4.350000e+00
      vertex   6.750000e+01 4.750000e+01 4.350000e+00
    endloop
  endfacet
  facet normal -1.000000e+00 0.000000e+00 0.000000e+00
    outer loop
      vertex   2.710000e+01 4.750000e+01 1.350000e+00
      vertex   2.710000e+01 4.650000e+01 1.350000e+00
      vertex   2.710000e+01 4.750000e+01 4.350000e+00
    endloop
  endfacet
  facet normal -1.000000e+00 -0.000000e+00 0.000000e+00
    outer loop
      vertex   2.710000e+01 4.750000e+01 4.350000e+00
      vertex   2.710000e+01 4.650000e+01 1.350000e+00
      vertex   2.710000e+01 4.650000e+01 4.350000e+00
    endloop
  endfacet
  facet normal 0.000000e+00 1.000000e+00 -0.000000e+00
    outer loop
      vertex   3.810000e+01 4.750000e+01 1.350000e+00
      vertex   2.710000e+01 4.750000e+01 1.350000e+00
      vertex   3.810000e+01 4.750000e+01 4.350000e+00
    endloop
  endfacet
  facet normal 0.000000e+00 1.000000e+00 0.000000e+00
    outer loop
      vertex   3.810000e+01 4.750000e+01 4.350000e+00
      vertex   2.710000e+01 4.750000e+01 1.350000e+00
      vertex   2.710000e+01 4.750000e+01 4.350000e+00
    endloop
  endfacet
  facet normal 0.000000e+00 0.000000e+00 1.000000e+00
    outer loop
      vertex   2.710000e+01 4.650000e+01 4.350000e+00
      vertex   3.810000e+01 4.650000e+01 4.350000e+00
      vertex   2.710000e+01 4.750000e+01 4.350000e+00
    endloop
  endfacet
  facet normal -0.000000e+00 0.000000e+00 1.000000e+00
    outer loop
      vertex   2.710000e+01 4.750000e+01 4.350000e+00
      vertex   3.810000e+01 4.650000e+01 4.350000e+00
      vertex   3.810000e+01 4.750000e+01 4.350000e+00
    endloop
  endfacet
  facet normal 0.000000e+00 1.000000e+00 -0.000000e+00
    outer loop
      vertex   6.550000e+01 7.000000e+00 1.350000e+00
      vertex   6.370000e+01 7.000000e+00 1.350000e+00
      vertex   6.550000e+01 7.000000e+00 4.000000e+00
    endloop
  endfacet
  facet normal 0.000000e+00 1.000000e+00 0.000000e+00
    outer loop
      vertex   6.550000e+01 7.000000e+00 4.000000e+00
      vertex   6.370000e+01 7.000000e+00 1.350000e+00
      vertex   6.370000e+01 7.000000e+00 4.000000e+00
    endloop
  endfacet
  facet normal 0.000000e+00 -0.000000e+00 1.000000e+00
    outer loop
      vertex   6.370000e+01 0.000000e+00 4.000000e+00
      vertex   6.550000e+01 0.000000e+00 4.000000e+00
      vertex   6.370000e+01 7.000000e+00 4.000000e+00
    endloop
  endfacet
  facet normal -0.000000e+00 0.000000e+00 1.000000e+00
    outer loop
      vertex   6.370000e+01 7.000000e+00 4.000000e+00
      vertex   6.550000e+01 0.000000e+00 4.000000e+00
      vertex   6.550000e+01 7.000000e+00 4.000000e+00
    endloop
  endfacet
  facet normal 9.868649e-16 1.000000e+00 -0.000000e+00
    outer loop
      vertex   2.710000e+01 7.000000e+00 1.350000e+00
      vertex   2.530000e+01 7.000000e+00 1.350000e+00
      vertex   2.710000e+01 7.000000e+00 4.000000e+00
    endloop
  endfacet
  facet normal 9.868649e-16 1.000000e+00 0.000000e+00
    outer loop
      vertex   2.710000e+01 7.000000e+00 4.000000e+00
      vertex   2.530000e+01 7.000000e+00 1.350000e+00
      vertex   2.530000e+01 7.000000e+00 4.000000e+00
    endloop
  endfacet
  facet normal 0.000000e+00 0.000000e+00 1.000000e+00
    outer loop
      vertex   2.530000e+01 0.000000e+00 4.000000e+00
      vertex   2.710000e+01 0.000000e+00 4.000000e+00
      vertex   2.530000e+01 7.000000e+00 4.000000e+00
    endloop
  endfacet
  facet normal 0.000000e+00 0.000000e+00 1.000000e+00
    outer loop
      vertex   2.530000e+01 7.000000e+00 4.000000e+00
      vertex   2.710000e+01 0.000000e+00 4.000000e+00
      vertex   2.710000e+01 7.000000e+00 4.000000e+00
    endloop
  endfacet
  facet normal 0.000000e+00 1.000000e+00 3.351617e-16
    outer loop
      vertex   5.270000e+01 7.000000e+00 1.350000e+00
      vertex   5.090000e+01 7.000000e+00 1.350000e+00
      vertex   5.270000e+01 7.000000e+00 4.000000e+00
    endloop
  endfacet
  facet normal 0.000000e+00 1.000000e+00 3.351617e-16
    outer loop
      vertex   5.270000e+01 7.000000e+00 4.000000e+00
      vertex   5.090000e+01 7.000000e+00 1.350000e+00
      vertex   5.090000e+01 7.000000e+00 4.000000e+00
    endloop
  endfacet
  facet normal 0.000000e+00 0.000000e+00 1.000000e+00
    outer loop
      vertex   5.090000e+01 0.000000e+00 4.000000e+00
      vertex   5.270000e+01 0.000000e+00 4.000000e+00
      vertex   5.090000e+01 7.000000e+00 4.000000e+00
    endloop
  endfacet
  facet normal -0.000000e+00 0.000000e+00 1.000000e+00
    outer loop
      vertex   5.090000e+01 7.000000e+00 4.000000e+00
      vertex   5.270000e+01 0.000000e+00 4.000000e+00
      vertex   5.270000e+01 7.000000e+00 4.000000e+00
    endloop
  endfacet
  facet normal 0.000000e+00 1.000000e+00 3.351617e-16
    outer loop
      vertex   3.990000e+01 7.000000e+00 1.350000e+00
      vertex   3.810000e+01 7.000000e+00 1.350000e+00
      vertex   3.990000e+01 7.000000e+00 4.000000e+00
    endloop
  endfacet
  facet normal 0.000000e+00 1.000000e+00 3.351617e-16
    outer loop
      vertex   3.990000e+01 7.000000e+00 4.000000e+00
      vertex   3.810000e+01 7.000000e+00 1.350000e+00
      vertex   3.810000e+01 7.000000e+00 4.000000e+00
    endloop
  endfacet
  facet normal 0.000000e+00 -0.000000e+00 1.000000e+00
    outer loop
      vertex   3.810000e+01 0.000000e+00 4.000000e+00
      vertex   3.990000e+01 0.000000e+00 4.000000e+00
      vertex   3.810000e+01 7.000000e+00 4.000000e+00
    endloop
  endfacet
  facet normal -0.000000e+00 0.000000e+00 1.000000e+00
    outer loop
      vertex   3.810000e+01 7.000000e+00 4.000000e+00
      vertex   3.990000e+01 0.000000e+00 4.000000e+00
      vertex   3.990000e+01 7.000000e+00 4.000000e+00
    endloop
  endfacet
  facet normal 0.000000e+00 -1.000000e+00 0.000000e+00
    outer loop
      vertex   2.330000e+01 6.000000e+01 0.000000e+00
      vertex   6.750000e+01 6.000000e+01 0.000000e+00
      vertex   2.330000e+01 6.000000e+01 1.350000e+00
    endloop
  endfacet
  facet normal 0.000000e+00 -1.000000e+00 0.000000e+00
    outer loop
      vertex   2.330000e+01 6.000000e+01 1.350000e+00
      vertex   6.750000e+01 6.000000e+01 0.000000e+00
      vertex   6.750000e+01 6.000000e+01 1.350000e+00
    endloop
  endfacet
  facet normal -1.000000e+00 0.000000e+00 0.000000e+00
    outer loop
      vertex   2.330000e+01 6.500000e+01 0.000000e+00
      vertex   2.330000e+01 6.000000e+01 0.000000e+00
      vertex   2.330000e+01 6.500000e+01 1.350000e+00
    endloop
  endfacet
  facet normal -1.000000e+00 -0.000000e+00 0.000000e+00
    outer loop
      vertex   2.330000e+01 6.500000e+01 1.350000e+00
      vertex   2.330000e+01 6.000000e+01 0.000000e+00
      vertex   2.330000e+01 6.000000e+01 1.350000e+00
    endloop
  endfacet
  facet normal 1.000000e+00 0.000000e+00 0.000000e+00
    outer loop
      vertex   6.750000e+01 6.000000e+01 0.000000e+00
      vertex   6.750000e+01 6.500000e+01 0.000000e+00
      vertex   6.750000e+01 6.000000e+01 1.350000e+00
    endloop
  endfacet
  facet normal 1.000000e+00 -0.000000e+00 0.000000e+00
    outer loop
      vertex   6.750000e+01 6.000000e+01 1.350000e+00
      vertex   6.750000e+01 6.500000e+01 0.000000e+00
      vertex   6.750000e+01 6.500000e+01 1.350000e+00
    endloop
  endfacet
  facet normal 0.000000e+00 0.000000e+00 1.000000e+00
    outer loop
      vertex   6.750000e+01 6.500000e+01 1.350000e+00
      vertex   2.330000e+01 6.500000e+01 1.350000e+00
      vertex   6.750000e+01 6.000000e+01 1.350000e+00
    endloop
  endfacet
  facet normal 0.000000e+00 0.000000e+00 1.000000e+00
    outer loop
      vertex   6.750000e+01 6.000000e+01 1.350000e+00
      vertex   2.330000e+01 6.500000e+01 1.350000e+00
      vertex   2.330000e+01 6.000000e+01 1.350000e+00
    endloop
  endfacet
  facet normal 8.881784e-15 1.000000e+00 0.000000e+00
    outer loop
      vertex   2.910000e+01 2.500000e+01 4.350000e+00
      vertex   2.910000e+01 2.500000e+01 0.000000e+00
      vertex   2.710000e+01 2.500000e+01 1.350000e+00
    endloop
  endfacet
  facet normal 5.512832e-15 1.000000e+00 -4.991041e-15
    outer loop
      vertex   2.710000e+01 2.500000e+01 1.350000e+00
      vertex   2.910000e+01 2.500000e+01 0.000000e+00
      vertex   2.330000e+01 2.500000e+01 0.000000e+00
    endloop
  endfacet
  facet normal 7.894919e-15 1.000000e+00 -1.169618e-14
    outer loop
      vertex   2.710000e+01 2.500000e+01 1.350000e+00
      vertex   2.330000e+01 2.500000e+01 0.000000e+00
      vertex   2.530000e+01 2.500000e+01 1.350000e+00
    endloop
  endfacet
  facet normal 0.000000e+00 1.000000e+00 0.000000e+00
    outer loop
      vertex   2.530000e+01 2.500000e+01 1.350000e+00
      vertex   2.330000e+01 2.500000e+01 0.000000e+00
      vertex   2.330000e+01 2.500000e+01 4.350000e+00
    endloop
  endfacet
  facet normal 0.000000e+00 1.000000e+00 -0.000000e+00
    outer loop
      vertex   2.530000e+01 2.500000e+01 1.350000e+00
      vertex   2.330000e+01 2.500000e+01 4.350000e+00
      vertex   2.530000e+01 2.500000e+01 4.350000e+00
    endloop
  endfacet
  facet normal 8.881784e-15 1.000000e+00 -0.000000e+00
    outer loop
      vertex   2.710000e+01 2.500000e+01 1.350000e+00
      vertex   2.710000e+01 2.500000e+01 4.350000e+00
      vertex   2.910000e+01 2.500000e+01 4.350000e+00
    endloop
  endfacet
  facet normal -0.000000e+00 0.000000e+00 1.000000e+00
    outer loop
      vertex   2.530000e+01 7.000000e+00 1.350000e+00
      vertex   2.710000e+01 7.000000e+00 1.350000e+00
      vertex   2.530000e+01 2.500000e+01 1.350000e+00
    endloop
  endfacet
  facet normal 0.000000e+00 0.000000e+00 1.000000e+00
    outer loop
      vertex   2.530000e+01 2.500000e+01 1.350000e+00
      vertex   2.710000e+01 7.000000e+00 1.350000e+00
      vertex   2.710000e+01 2.500000e+01 1.350000e+00
    endloop
  endfacet
  facet normal 1.598721e-14 1.000000e+00 0.000000e+00
    outer loop
      vertex   6.750000e+01 2.500000e+01 4.350000e+00
      vertex   6.750000e+01 2.500000e+01 0.000000e+00
      vertex   6.550000e+01 2.500000e+01 1.350000e+00
    endloop
  endfacet
  facet normal 7.350442e-15 1.000000e+00 -1.279521e-14
    outer loop
      vertex   6.550000e+01 2.500000e+01 1.350000e+00
      vertex   6.750000e+01 2.500000e+01 0.000000e+00
      vertex   6.170000e+01 2.500000e+01 0.000000e+00
    endloop
  endfacet
  facet normal 2.960595e-14 1.000000e+00 -7.544034e-14
    outer loop
      vertex   6.550000e+01 2.500000e+01 1.350000e+00
      vertex   6.170000e+01 2.500000e+01 0.000000e+00
      vertex   6.370000e+01 2.500000e+01 1.350000e+00
    endloop
  endfacet
  facet normal -2.131628e-14 1.000000e+00 0.000000e+00
    outer loop
      vertex   6.370000e+01 2.500000e+01 1.350000e+00
      vertex   6.170000e+01 2.500000e+01 0.000000e+00
      vertex   6.170000e+01 2.500000e+01 4.350000e+00
    endloop
  endfacet
  facet normal -2.131628e-14 1.000000e+00 0.000000e+00
    outer loop
      vertex   6.370000e+01 2.500000e+01 1.350000e+00
      vertex   6.170000e+01 2.500000e+01 4.350000e+00
      vertex   6.370000e+01 2.500000e+01 4.350000e+00
    endloop
  endfacet
  facet normal 1.598721e-14 1.000000e+00 -0.000000e+00
    outer loop
      vertex   6.550000e+01 2.500000e+01 1.350000e+00
      vertex   6.550000e+01 2.500000e+01 4.350000e+00
      vertex   6.750000e+01 2.500000e+01 4.350000e+00
    endloop
  endfacet
  facet normal 0.000000e+00 0.000000e+00 1.000000e+00
    outer loop
      vertex   6.550000e+01 2.500000e+01 1.350000e+00
      vertex   6.370000e+01 2.500000e+01 1.350000e+00
      vertex   6.550000e+01 7.000000e+00 1.350000e+00
    endloop
  endfacet
  facet normal 0.000000e+00 0.000000e+00 1.000000e+00
    outer loop
      vertex   6.550000e+01 7.000000e+00 1.350000e+00
      vertex   6.370000e+01 2.500000e+01 1.350000e+00
      vertex   6.370000e+01 7.000000e+00 1.350000e+00
    endloop
  endfacet
  facet normal 1.065814e-14 1.000000e+00 0.000000e+00
    outer loop
      vertex   4.190000e+01 2.500000e+01 4.350000e+00
      vertex   4.190000e+01 2.500000e+01 0.000000e+00
      vertex   3.990000e+01 2.500000e+01 1.350000e+00
    endloop
  endfacet
  facet normal 5.512832e-15 1.000000e+00 -7.622681e-15
    outer loop
      vertex   3.990000e+01 2.500000e+01 1.350000e+00
      vertex   4.190000e+01 2.500000e+01 0.000000e+00
      vertex   3.610000e+01 2.500000e+01 0.000000e+00
    endloop
  endfacet
  facet normal 1.578984e-14 1.000000e+00 -3.655055e-14
    outer loop
      vertex   3.990000e+01 2.500000e+01 1.350000e+00
      vertex   3.610000e+01 2.500000e+01 0.000000e+00
      vertex   3.810000e+01 2.500000e+01 1.350000e+00
    endloop
  endfacet
  facet normal -8.881784e-15 1.000000e+00 0.000000e+00
    outer loop
      vertex   3.810000e+01 2.500000e+01 1.350000e+00
      vertex   3.610000e+01 2.500000e+01 0.000000e+00
      vertex   3.610000e+01 2.500000e+01 4.350000e+00
    endloop
  endfacet
  facet normal -8.881784e-15 1.000000e+00 0.000000e+00
    outer loop
      vertex   3.810000e+01 2.500000e+01 1.350000e+00
      vertex   3.610000e+01 2.500000e+01 4.350000e+00
      vertex   3.810000e+01 2.500000e+01 4.350000e+00
    endloop
  endfacet
  facet normal 1.065814e-14 1.000000e+00 -0.000000e+00
    outer loop
      vertex   3.990000e+01 2.500000e+01 1.350000e+00
      vertex   3.990000e+01 2.500000e+01 4.350000e+00
      vertex   4.190000e+01 2.500000e+01 4.350000e+00
    endloop
  endfacet
  facet normal 0.000000e+00 0.000000e+00 1.000000e+00
    outer loop
      vertex   3.990000e+01 2.500000e+01 1.350000e+00
      vertex   3.810000e+01 2.500000e+01 1.350000e+00
      vertex   3.990000e+01 7.000000e+00 1.350000e+00
    endloop
  endfacet
  facet normal 0.000000e+00 0.000000e+00 1.000000e+00
    outer loop
      vertex   3.990000e+01 7.000000e+00 1.350000e+00
      vertex   3.810000e+01 2.500000e+01 1.350000e+00
      vertex   3.810000e+01 7.000000e+00 1.350000e+00
    endloop
  endfacet
  facet normal 2.486900e-14 1.000000e+00 0.000000e+00
    outer loop
      vertex   5.470000e+01 2.500000e+01 4.350000e+00
      vertex   5.470000e+01 2.500000e+01 0.000000e+00
      vertex   5.270000e+01 2.500000e+01 1.350000e+00
    endloop
  endfacet
  facet normal 1.225074e-14 1.000000e+00 -1.869372e-14
    outer loop
      vertex   5.270000e+01 2.500000e+01 1.350000e+00
      vertex   5.470000e+01 2.500000e+01 0.000000e+00
      vertex   4.890000e+01 2.500000e+01 0.000000e+00
    endloop
  endfacet
  facet normal 2.763222e-14 1.000000e+00 -6.198974e-14
    outer loop
      vertex   5.270000e+01 2.500000e+01 1.350000e+00
      vertex   4.890000e+01 2.500000e+01 0.000000e+00
      vertex   5.090000e+01 2.500000e+01 1.350000e+00
    endloop
  endfacet
  facet normal -1.421085e-14 1.000000e+00 0.000000e+00
    outer loop
      vertex   5.090000e+01 2.500000e+01 1.350000e+00
      vertex   4.890000e+01 2.500000e+01 0.000000e+00
      vertex   4.890000e+01 2.500000e+01 4.350000e+00
    endloop
  endfacet
  facet normal -1.421085e-14 1.000000e+00 0.000000e+00
    outer loop
      vertex   5.090000e+01 2.500000e+01 1.350000e+00
      vertex   4.890000e+01 2.500000e+01 4.350000e+00
      vertex   5.090000e+01 2.500000e+01 4.350000e+00
    endloop
  endfacet
  facet normal 2.486900e-14 1.000000e+00 -0.000000e+00
    outer loop
      vertex   5.270000e+01 2.500000e+01 1.350000e+00
      vertex   5.270000e+01 2.500000e+01 4.350000e+00
      vertex   5.470000e+01 2.500000e+01 4.350000e+00
    endloop
  endfacet
  facet normal 0.000000e+00 0.000000e+00 1.000000e+00
    outer loop
      vertex   5.270000e+01 2.500000e+01 1.350000e+00
      vertex   5.090000e+01 2.500000e+01 1.350000e+00
      vertex   5.270000e+01 7.000000e+00 1.350000e+00
    endloop
  endfacet
  facet normal 0.000000e+00 0.000000e+00 1.000000e+00
    outer loop
      vertex   5.270000e+01 7.000000e+00 1.350000e+00
      vertex   5.090000e+01 2.500000e+01 1.350000e+00
      vertex   5.090000e+01 7.000000e+00 1.350000e+00
    endloop
  endfacet
  facet normal -1.000000e+00 0.000000e+00 2.960595e-16
    outer loop
      vertex   -4.000000e+00 6.900000e+01 -2.000000e+00
      vertex   -4.000000e+00 -4.000000e+00 -2.000000e+00
      vertex   -4.000000e+00 6.900000e+01 1.000000e+01
    endloop
  endfacet
  facet normal -1.000000e+00 2.433366e-17 1.480297e-16
    outer loop
      vertex   -4.000000e+00 6.900000e+01 1.000000e+01
      vertex   -4.000000e+00 -4.000000e+00 -2.000000e+00
      vertex   -4.000000e+00 -4.000000e+00 1.000000e+01
    endloop
  endfacet
  facet normal -3.116416e-16 -1.000000e+00 4.613222e-32
    outer loop
      vertex   -4.000000e+00 -4.000000e+00 -2.000000e+00
      vertex   8.150000e+01 -4.000000e+00 -2.000000e+00
      vertex   -4.000000e+00 -4.000000e+00 1.000000e+01
    endloop
  endfacet
  facet normal -3.116416e-16 -1.000000e+00 0.000000e+00
    outer loop
      vertex   -4.000000e+00 -4.000000e+00 1.000000e+01
      vertex   8.150000e+01 -4.000000e+00 -2.000000e+00
      vertex   8.150000e+01 -4.000000e+00 1.000000e+01
    endloop
  endfacet
  facet normal 1.000000e+00 -5.840077e-16 0.000000e+00
    outer loop
      vertex   8.150000e+01 -4.000000e+00 -2.000000e+00
      vertex   8.150000e+01 6.900000e+01 -2.000000e+00
      vertex   8.150000e+01 -4.000000e+00 1.000000e+01
    endloop
  endfacet
  facet normal 1.000000e+00 -5.840077e-16 0.000000e+00
    outer loop
      vertex   8.150000e+01 -4.000000e+00 1.000000e+01
      vertex   8.150000e+01 6.900000e+01 -2.000000e+00
      vertex   8.150000e+01 6.900000e+01 1.000000e+01
    endloop
  endfacet
  facet normal -0.000000e+00 1.000000e+00 0.000000e+00
    outer loop
      vertex   7.398345e+01 6.900000e+01 1.000000e+01
      vertex   8.150000e+01 6.900000e+01 1.000000e+01
      vertex   7.398345e+01 6.900000e+01 2.350000e+00
    endloop
  endfacet
  facet normal -0.000000e+00 1.000000e+00 0.000000e+00
    outer loop
      vertex   7.398345e+01 6.900000e+01 2.350000e+00
      vertex   8.150000e+01 6.900000e+01 1.000000e+01
      vertex   8.150000e+01 6.900000e+01 -2.000000e+00
    endloop
  endfacet
  facet normal 0.000000e+00 1.000000e+00 0.000000e+00
    outer loop
      vertex   7.398345e+01 6.900000e+01 2.350000e+00
      vertex   8.150000e+01 6.900000e+01 -2.000000e+00
      vertex   5.017231e+00 6.900000e+01 2.350000e+00
    endloop
  endfacet
  facet normal 0.000000e+00 1.000000e+00 0.000000e+00
    outer loop
      vertex   5.017231e+00 6.900000e+01 2.350000e+00
      vertex   8.150000e+01 6.900000e+01 -2.000000e+00
      vertex   -4.000000e+00 6.900000e+01 -2.000000e+00
    endloop
  endfacet
  facet normal 0.000000e+00 1.000000e+00 0.000000e+00
    outer loop
      vertex   5.017231e+00 6.900000e+01 2.350000e+00
      vertex   -4.000000e+00 6.900000e+01 -2.000000e+00
      vertex   -4.000000e+00 6.900000e+01 1.000000e+01
    endloop
  endfacet
  facet normal -0.000000e+00 1.000000e+00 0.000000e+00
    outer loop
      vertex   -4.000000e+00 6.900000e+01 1.000000e+01
      vertex   5.017231e+00 6.900000e+01 1.000000e+01
      vertex   5.017231e+00 6.900000e+01 2.350000e+00
    endloop
  endfacet
  facet normal 0.000000e+00 0.000000e+00 1.000000e+00
    outer loop
      vertex   5.470000e+01 -9.501777e-16 0.000000e+00
      vertex   6.170000e+01 0.000000e+00 0.000000e+00
      vertex   5.470000e+01 2.500000e+01 0.000000e+00
    endloop
  endfacet
  facet normal -0.000000e+00 0.000000e+00 1.000000e+00
    outer loop
      vertex   5.470000e+01 2.500000e+01 0.000000e+00
      vertex   6.170000e+01 0.000000e+00 0.000000e+00
      vertex   6.170000e+01 2.500000e+01 0.000000e+00
    endloop
  endfacet
  facet normal 0.000000e+00 0.000000e+00 1.000000e+00
    outer loop
      vertex   5.470000e+01 2.500000e+01 0.000000e+00
      vertex   6.170000e+01 2.500000e+01 0.000000e+00
      vertex   7.150000e+01 4.250000e+01 0.000000e+00
    endloop
  endfacet
  facet normal 0.000000e+00 0.000000e+00 1.000000e+00
    outer loop
      vertex   7.150000e+01 4.250000e+01 0.000000e+00
      vertex   6.170000e+01 2.500000e+01 0.000000e+00
      vertex   6.750000e+01 2.500000e+01 0.000000e+00
    endloop
  endfacet
  facet normal 0.000000e+00 0.000000e+00 1.000000e+00
    outer loop
      vertex   7.150000e+01 4.250000e+01 0.000000e+00
      vertex   6.750000e+01 2.500000e+01 0.000000e+00
      vertex   7.750000e+01 0.000000e+00 0.000000e+00
    endloop
  endfacet
  facet normal 0.000000e+00 0.000000e+00 1.000000e+00
    outer loop
      vertex   7.750000e+01 0.000000e+00 0.000000e+00
      vertex   6.750000e+01 2.500000e+01 0.000000e+00
      vertex   6.750000e+01 0.000000e+00 0.000000e+00
    endloop
  endfacet
  facet normal 0.000000e+00 -0.000000e+00 1.000000e+00
    outer loop
      vertex   7.750000e+01 0.000000e+00 0.000000e+00
      vertex   7.750000e+01 6.500000e+01 0.000000e+00
      vertex   7.150000e+01 4.250000e+01 0.000000e+00
    endloop
  endfacet
  facet normal 0.000000e+00 0.000000e+00 1.000000e+00
    outer loop
      vertex   7.150000e+01 4.250000e+01 0.000000e+00
      vertex   7.750000e+01 6.500000e+01 0.000000e+00
      vertex   7.150000e+01 5.150000e+01 0.000000e+00
    endloop
  endfacet
  facet normal 0.000000e+00 -0.000000e+00 1.000000e+00
    outer loop
      vertex   7.150000e+01 5.150000e+01 0.000000e+00
      vertex   7.750000e+01 6.500000e+01 0.000000e+00
      vertex   6.750000e+01 6.000000e+01 0.000000e+00
    endloop
  endfacet
  facet normal 0.000000e+00 0.000000e+00 1.000000e+00
    outer loop
      vertex   7.150000e+01 5.150000e+01 0.000000e+00
      vertex   6.750000e+01 6.000000e+01 0.000000e+00
      vertex   2.330000e+01 6.000000e+01 0.000000e+00
    endloop
  endfacet
  facet normal 0.000000e+00 0.000000e+00 1.000000e+00
    outer loop
      vertex   7.750000e+01 6.500000e+01 0.000000e+00
      vertex   6.750000e+01 6.500000e+01 0.000000e+00
      vertex   6.750000e+01 6.000000e+01 0.000000e+00
    endloop
  endfacet
  facet normal 0.000000e+00 0.000000e+00 1.000000e+00
    outer loop
      vertex   2.330000e+01 6.500000e+01 0.000000e+00
      vertex   1.430000e+01 6.500000e+01 0.000000e+00
      vertex   2.330000e+01 6.000000e+01 0.000000e+00
    endloop
  endfacet
  facet normal 0.000000e+00 0.000000e+00 1.000000e+00
    outer loop
      vertex   2.330000e+01 6.000000e+01 0.000000e+00
      vertex   1.430000e+01 6.500000e+01 0.000000e+00
      vertex   1.930000e+01 5.150000e+01 0.000000e+00
    endloop
  endfacet
  facet normal 0.000000e+00 0.000000e+00 1.000000e+00
    outer loop
      vertex   2.330000e+01 6.000000e+01 0.000000e+00
      vertex   1.930000e+01 5.150000e+01 0.000000e+00
      vertex   7.150000e+01 5.150000e+01 0.000000e+00
    endloop
  endfacet
  facet normal 0.000000e+00 0.000000e+00 1.000000e+00
    outer loop
      vertex   1.430000e+01 6.700000e+01 0.000000e+00
      vertex   1.250000e+01 6.700000e+01 0.000000e+00
      vertex   1.430000e+01 6.500000e+01 0.000000e+00
    endloop
  endfacet
  facet normal 0.000000e+00 0.000000e+00 1.000000e+00
    outer loop
      vertex   1.430000e+01 6.500000e+01 0.000000e+00
      vertex   1.250000e+01 6.700000e+01 0.000000e+00
      vertex   1.250000e+01 6.500000e+01 0.000000e+00
    endloop
  endfacet
  facet normal 0.000000e+00 0.000000e+00 1.000000e+00
    outer loop
      vertex   1.430000e+01 6.500000e+01 0.000000e+00
      vertex   1.250000e+01 6.500000e+01 0.000000e+00
      vertex   1.930000e+01 5.150000e+01 0.000000e+00
    endloop
  endfacet
  facet normal 0.000000e+00 0.000000e+00 1.000000e+00
    outer loop
      vertex   1.930000e+01 5.150000e+01 0.000000e+00
      vertex   1.250000e+01 6.500000e+01 0.000000e+00
      vertex   1.100000e+01 4.400000e+01 0.000000e+00
    endloop
  endfacet
  facet normal 0.000000e+00 0.000000e+00 1.000000e+00
    outer loop
      vertex   1.930000e+01 5.150000e+01 0.000000e+00
      vertex   1.100000e+01 4.400000e+01 0.000000e+00
      vertex   1.250000e+01 4.400000e+01 0.000000e+00
    endloop
  endfacet
  facet normal 0.000000e+00 0.000000e+00 1.000000e+00
    outer loop
      vertex   1.250000e+01 6.500000e+01 0.000000e+00
      vertex   0.000000e+00 6.500000e+01 0.000000e+00
      vertex   1.100000e+01 4.400000e+01 0.000000e+00
    endloop
  endfacet
  facet normal 0.000000e+00 0.000000e+00 1.000000e+00
    outer loop
      vertex   1.100000e+01 4.400000e+01 0.000000e+00
      vertex   0.000000e+00 6.500000e+01 0.000000e+00
      vertex   1.100000e+01 3.550000e+01 0.000000e+00
    endloop
  endfacet
  facet normal 0.000000e+00 0.000000e+00 1.000000e+00
    outer loop
      vertex   1.100000e+01 3.550000e+01 0.000000e+00
      vertex   0.000000e+00 6.500000e+01 0.000000e+00
      vertex   0.000000e+00 0.000000e+00 0.000000e+00
    endloop
  endfacet
  facet normal 0.000000e+00 0.000000e+00 1.000000e+00
    outer loop
      vertex   1.100000e+01 3.550000e+01 0.000000e+00
      vertex   0.000000e+00 0.000000e+00 0.000000e+00
      vertex   2.330000e+01 2.500000e+01 0.000000e+00
    endloop
  endfacet
  facet normal 0.000000e+00 0.000000e+00 1.000000e+00
    outer loop
      vertex   2.330000e+01 2.500000e+01 0.000000e+00
      vertex   0.000000e+00 0.000000e+00 0.000000e+00
      vertex   2.330000e+01 0.000000e+00 0.000000e+00
    endloop
  endfacet
  facet normal -0.000000e+00 0.000000e+00 1.000000e+00
    outer loop
      vertex   1.100000e+01 3.550000e+01 0.000000e+00
      vertex   2.330000e+01 2.500000e+01 0.000000e+00
      vertex   1.580000e+01 3.550000e+01 0.000000e+00
    endloop
  endfacet
  facet normal 0.000000e+00 0.000000e+00 1.000000e+00
    outer loop
      vertex   1.580000e+01 3.550000e+01 0.000000e+00
      vertex   2.330000e+01 2.500000e+01 0.000000e+00
      vertex   2.910000e+01 2.500000e+01 0.000000e+00
    endloop
  endfacet
  facet normal -0.000000e+00 0.000000e+00 1.000000e+00
    outer loop
      vertex   1.580000e+01 3.550000e+01 0.000000e+00
      vertex   2.910000e+01 2.500000e+01 0.000000e+00
      vertex   1.930000e+01 4.250000e+01 0.000000e+00
    endloop
  endfacet
  facet normal 0.000000e+00 0.000000e+00 1.000000e+00
    outer loop
      vertex   1.930000e+01 4.250000e+01 0.000000e+00
      vertex   2.910000e+01 2.500000e+01 0.000000e+00
      vertex   3.610000e+01 2.500000e+01 0.000000e+00
    endloop
  endfacet
  facet normal 0.000000e+00 0.000000e+00 1.000000e+00
    outer loop
      vertex   1.930000e+01 4.250000e+01 0.000000e+00
      vertex   3.610000e+01 2.500000e+01 0.000000e+00
      vertex   4.190000e+01 2.500000e+01 0.000000e+00
    endloop
  endfacet
  facet normal 0.000000e+00 0.000000e+00 1.000000e+00
    outer loop
      vertex   2.910000e+01 0.000000e+00 0.000000e+00
      vertex   3.610000e+01 0.000000e+00 0.000000e+00
      vertex   2.910000e+01 2.500000e+01 0.000000e+00
    endloop
  endfacet
  facet normal -0.000000e+00 0.000000e+00 1.000000e+00
    outer loop
      vertex   2.910000e+01 2.500000e+01 0.000000e+00
      vertex   3.610000e+01 0.000000e+00 0.000000e+00
      vertex   3.610000e+01 2.500000e+01 0.000000e+00
    endloop
  endfacet
  facet normal 0.000000e+00 -0.000000e+00 1.000000e+00
    outer loop
      vertex   4.190000e+01 0.000000e+00 0.000000e+00
      vertex   4.890000e+01 0.000000e+00 0.000000e+00
      vertex   4.190000e+01 2.500000e+01 0.000000e+00
    endloop
  endfacet
  facet normal -0.000000e+00 0.000000e+00 1.000000e+00
    outer loop
      vertex   4.190000e+01 2.500000e+01 0.000000e+00
      vertex   4.890000e+01 0.000000e+00 0.000000e+00
      vertex   4.890000e+01 2.500000e+01 0.000000e+00
    endloop
  endfacet
  facet normal 0.000000e+00 -0.000000e+00 1.000000e+00
    outer loop
      vertex   4.190000e+01 2.500000e+01 0.000000e+00
      vertex   4.890000e+01 2.500000e+01 0.000000e+00
      vertex   1.930000e+01 4.250000e+01 0.000000e+00
    endloop
  endfacet
  facet normal -0.000000e+00 0.000000e+00 1.000000e+00
    outer loop
      vertex   1.930000e+01 4.250000e+01 0.000000e+00
      vertex   4.890000e+01 2.500000e+01 0.000000e+00
      vertex   7.150000e+01 4.250000e+01 0.000000e+00
    endloop
  endfacet
  facet normal 0.000000e+00 0.000000e+00 1.000000e+00
    outer loop
      vertex   7.150000e+01 4.250000e+01 0.000000e+00
      vertex   4.890000e+01 2.500000e+01 0.000000e+00
      vertex   5.470000e+01 2.500000e+01 0.000000e+00
    endloop
  endfacet
  facet normal 0.000000e+00 -0.000000e+00 1.000000e+00
    outer loop
      vertex   1.250000e+01 3.700000e+01 0.000000e+00
      vertex   1.430000e+01 3.700000e+01 0.000000e+00
      vertex   1.250000e+01 4.400000e+01 0.000000e+00
    endloop
  endfacet
  facet normal -0.000000e+00 0.000000e+00 1.000000e+00
    outer loop
      vertex   1.250000e+01 4.400000e+01 0.000000e+00
      vertex   1.430000e+01 3.700000e+01 0.000000e+00
      vertex   1.430000e+01 4.400000e+01 0.000000e+00
    endloop
  endfacet
  facet normal 0.000000e+00 0.000000e+00 1.000000e+00
    outer loop
      vertex   1.250000e+01 4.400000e+01 0.000000e+00
      vertex   1.430000e+01 4.400000e+01 0.000000e+00
      vertex   1.930000e+01 5.150000e+01 0.000000e+00
    endloop
  endfacet
  facet normal 0.000000e+00 0.000000e+00 1.000000e+00
    outer loop
      vertex   1.930000e+01 5.150000e+01 0.000000e+00
      vertex   1.430000e+01 4.400000e+01 0.000000e+00
      vertex   1.580000e+01 4.400000e+01 0.000000e+00
    endloop
  endfacet
  facet normal 0.000000e+00 0.000000e+00 1.000000e+00
    outer loop
      vertex   1.930000e+01 5.150000e+01 0.000000e+00
      vertex   1.580000e+01 4.400000e+01 0.000000e+00
      vertex   1.930000e+01 4.250000e+01 0.000000e+00
    endloop
  endfacet
  facet normal 0.000000e+00 0.000000e+00 1.000000e+00
    outer loop
      vertex   1.930000e+01 4.250000e+01 0.000000e+00
      vertex   1.580000e+01 4.400000e+01 0.000000e+00
      vertex   1.580000e+01 3.550000e+01 0.000000e+00
    endloop
  endfacet
  facet normal 0.000000e+00 0.000000e+00 -1.000000e+00
    outer loop
      vertex   -4.000000e+00 6.900000e+01 -2.000000e+00
      vertex   8.150000e+01 6.900000e+01 -2.000000e+00
      vertex   -4.000000e+00 -4.000000e+00 -2.000000e+00
    endloop
  endfacet
  facet normal 0.000000e+00 0.000000e+00 -1.000000e+00
    outer loop
      vertex   -4.000000e+00 -4.000000e+00 -2.000000e+00
      vertex   8.150000e+01 6.900000e+01 -2.000000e+00
      vertex   8.150000e+01 -4.000000e+00 -2.000000e+00
    endloop
  endfacet
endsolid
